<?xml version="1.0" standalone="no"?>
<!DOCTYPE svg PUBLIC "-//W3C//DTD SVG 20010904//EN"
 "http://www.w3.org/TR/2001/REC-SVG-20010904/DTD/svg10.dtd">
<svg version="1.0" xmlns="http://www.w3.org/2000/svg"
 width="260.000000pt" height="260.000000pt" viewBox="0 0 260.000000 260.000000"
 preserveAspectRatio="xMidYMid meet">
<metadata>
Created by potrace 1.11, written by Peter Selinger 2001-2013
</metadata>
<g transform="translate(0.000000,260.000000) scale(0.100000,-0.100000)"
fill="#000000" stroke="none">
<path d="M681 2279 c-235 -46 -413 -199 -498 -429 l-28 -75 -3 -731 -3 -731
878 2 c805 1 883 3 942 19 215 59 389 222 457 428 l28 83 1 723 2 722 -866 -1
c-476 -1 -886 -5 -910 -10z m1153 -491 c-1 -216 -2 -395 -3 -398 -1 -3 -354
-5 -786 -5 l-786 0 2 155 c1 189 10 243 56 339 64 134 196 242 345 281 67 17
116 19 623 19 l550 1 -1 -392z m512 7 c0 -209 -3 -387 -7 -395 -6 -13 -36 -15
-191 -14 -100 1 -188 2 -193 3 -7 1 -10 138 -10 396 l0 395 200 -2 200 -3 1
-380z m-1662 -922 c1 -221 -1 -412 -4 -425 l-6 -23 -207 0 -207 0 0 426 0 426
211 -1 212 -1 1 -402z m1657 398 c3 0 4 -90 3 -198 -1 -170 -4 -208 -23 -270
-52 -174 -208 -319 -391 -364 -42 -10 -180 -13 -585 -14 -291 -1 -535 0 -541
2 -8 3 -12 121 -12 421 0 229 1 419 3 423 3 4 1526 5 1546 0z"/>
</g>
</svg>
