<?xml version="1.0" encoding="UTF-8"?>
<svg width="41px" height="41px" viewBox="0 0 41 41" version="1.1" xmlns="http://www.w3.org/2000/svg" xmlns:xlink="http://www.w3.org/1999/xlink">
    <!-- Generator: Sketch 49 (51002) - http://www.bohemiancoding.com/sketch -->
    <title>blacksplash-icon</title>
    <desc>Created with Sketch.</desc>
    <defs></defs>
    <g id="Page-1-Copy" stroke="none" stroke-width="1" fill="none" fill-rule="evenodd">
        <g id="Habilis" transform="translate(-871.000000, -2626.000000)">
            <g id="Group-41" transform="translate(-66.000000, 2071.000000)">
                <g id="Group-37" transform="translate(837.000000, 162.000000)">
                    <g id="blacksplash-icon" transform="translate(100.000000, 393.000000)">
                        <g id="Group-12">
                            <rect id="Rectangle-6" fill="#DEEBFA" x="0" y="4.96969697" width="36.030303" height="36.030303" rx="5"></rect>
                            <g id="brick-wall" transform="translate(4.969697, 0.000000)" fill="#174D92" fill-rule="nonzero">
                                <path d="M30.7658474,0 L26.5345545,0 L18.0046952,0 L9.4747099,0 L7.50627114,0 L5.24354291,0 L4.77678671,0 C4.6605071,0 4.54964463,0.0220465141 4.4467189,0.0604704387 C1.9321565,0.445339585 0,2.62303126 0,5.24341693 L0,18.0046952 L0,26.5345545 L0,30.7659734 C0,33.6572163 2.35217408,36.0093903 5.24341693,36.0093903 L30.7658474,36.0093903 C33.6570903,36.0093903 36.0092644,33.6572163 36.0092644,30.7659734 L36.0092644,26.5345545 L36.0092644,18.0046952 L36.0092644,9.47483588 L36.0092644,5.24341693 C36.0092644,2.35217408 33.6572163,0 30.7658474,0 Z M34.1195631,25.5897039 L27.4794051,25.5897039 L27.4794051,18.9495458 L34.1195631,18.9495458 L34.1195631,25.5897039 Z M18.9495458,10.4196865 L26.5345545,10.4196865 L34.1195631,10.4196865 L34.1195631,17.0598446 L26.5345545,17.0598446 L18.9495458,17.0598446 L18.9495458,10.4196865 Z M34.1195631,5.24341693 L34.1195631,8.52998527 L27.4794051,8.52998527 L27.4794051,1.88970121 L30.7658474,1.88970121 C32.615235,1.88970121 34.1195631,3.39415533 34.1195631,5.24341693 Z M25.5897039,1.88970121 L25.5897039,8.52998527 L18.0046952,8.52998527 L10.4195605,8.52998527 L10.4195605,1.88970121 L18.0045692,1.88970121 L25.5897039,1.88970121 Z M5.24354291,1.88970121 L7.50639712,1.88970121 L8.52998527,1.88970121 L8.52998527,8.52998527 L6.3908435,8.52998527 C5.86903401,8.52998527 5.4459929,8.9529004 5.4459929,9.47483588 C5.4459929,9.99677135 5.86903401,10.4196865 6.3908435,10.4196865 L9.4747099,10.4196865 L17.0597186,10.4196865 L17.0597186,17.0598446 L9.4747099,17.0598446 L4.77678671,17.0598446 L1.88970121,17.0598446 L1.88970121,5.24341693 C1.88970121,3.39415533 3.39415533,1.88970121 5.24354291,1.88970121 Z M8.52985929,25.5897039 L3.30697711,25.5897039 L1.88970121,25.5897039 L1.88970121,18.9495458 L4.77678671,18.9495458 L8.52998527,18.9495458 L8.52998527,25.5897039 L8.52985929,25.5897039 Z M1.88970121,30.7659734 L1.88970121,27.4794051 L3.30697711,27.4794051 L9.4747099,27.4794051 L17.0597186,27.4794051 L17.0597186,34.1196891 L5.24354291,34.1196891 C3.39415533,34.1196891 1.88970121,32.615235 1.88970121,30.7659734 Z M30.7658474,34.1196891 L18.9495458,34.1196891 L18.9495458,26.5345545 C18.9495458,26.012619 18.5265047,25.5897039 18.0046952,25.5897039 L10.4195605,25.5897039 L10.4195605,18.9495458 L18.0045692,18.9495458 L25.5895779,18.9495458 L25.5895779,25.5897039 L22.2881439,25.5897039 C21.7663344,25.5897039 21.3432933,26.012619 21.3432933,26.5345545 C21.3432933,27.0564899 21.7663344,27.4794051 22.2881439,27.4794051 L34.1194372,27.4794051 L34.1194372,30.7659734 C34.1195631,32.615235 32.615235,34.1196891 30.7658474,34.1196891 Z" id="Shape"></path>
                            </g>
                        </g>
                    </g>
                </g>
            </g>
        </g>
    </g>
</svg>