<?xml version="1.0" encoding="UTF-8"?>
<svg width="40px" height="40px" viewBox="0 0 40 40" version="1.1" xmlns="http://www.w3.org/2000/svg" xmlns:xlink="http://www.w3.org/1999/xlink">
    <!-- Generator: Sketch 49 (51002) - http://www.bohemiancoding.com/sketch -->
    <title>bricks-icon</title>
    <desc>Created with Sketch.</desc>
    <defs></defs>
    <g id="Page-1-Copy" stroke="none" stroke-width="1" fill="none" fill-rule="evenodd">
        <g id="Habilis" transform="translate(-874.000000, -2430.000000)" fill-rule="nonzero">
            <g id="Group-41" transform="translate(-66.000000, 2071.000000)">
                <g id="Group-37" transform="translate(837.000000, 162.000000)">
                    <g id="bricks-icon" transform="translate(103.000000, 197.000000)">
                        <path d="M35.9119242,20.1238644 C36.3511079,21.1184886 36.265277,22.2585866 35.6823032,23.1737214 C35.0990962,24.0888562 34.1100583,24.6352124 33.0369388,24.6352124 L29.7341983,24.6352124 L29.7341983,27.8736642 L31.8999125,27.8736642 C32.3830612,27.8736642 32.7745481,28.271348 32.7745481,28.7621446 L32.7745481,35.9931904 C32.7745481,38.1691381 31.0318076,39.9393464 28.8898834,39.9393464 L28.8291254,39.9393464 C26.6870845,39.9393464 24.9444606,38.1690196 24.9444606,35.9931904 L24.9444606,28.7621446 C24.9444606,28.271348 25.3359475,27.8736642 25.8190962,27.8736642 L27.9848105,27.8736642 L27.9848105,24.6352124 L24.6814869,24.6352124 C23.6511662,24.6352124 22.6846356,24.1225 22.0957143,23.2637541 C21.5069096,22.4050082 21.368484,21.3062541 21.7256851,20.3246609 L25.4995627,9.95206699 C25.9618367,8.6816585 27.1231195,7.86082108 28.45793,7.86082108 C29.7146064,7.86082108 30.8151312,8.58522876 31.3302332,9.75138889 L35.9119242,20.1238644 Z" id="Shape-Copy" fill="#DEEBFA"></path>
                        <path d="M39.6619242,16.3738644 L35.0802332,6.00138889 C34.5651312,4.83522876 33.4646064,4.11082108 32.20793,4.11082108 C30.8731195,4.11082108 29.7118367,4.9316585 29.2495627,6.20206699 L25.4756851,16.5746609 C25.118484,17.5562541 25.2569096,18.6550082 25.8457143,19.5137541 C26.4346356,20.3725 27.4011662,20.8852124 28.4314869,20.8852124 L31.7348105,20.8852124 L31.7348105,24.1236642 L29.5690962,24.1236642 C29.0859475,24.1236642 28.6944606,24.521348 28.6944606,25.0121446 L28.6944606,32.2431904 C28.6944606,34.4190196 30.4370845,36.1893464 32.5791254,36.1893464 L32.6398834,36.1893464 C34.7818076,36.1893464 36.5245481,34.4191381 36.5245481,32.2431904 L36.5245481,25.0121446 C36.5245481,24.521348 36.1330612,24.1236642 35.6499125,24.1236642 L33.4841983,24.1236642 L33.4841983,20.8852124 L36.7869388,20.8852124 C37.8600583,20.8852124 38.8490962,20.3388562 39.4323032,19.4237214 C40.015277,18.5085866 40.1011079,17.3684886 39.6619242,16.3738644 Z M34.7751603,32.2430719 C34.7751603,33.4392034 33.8172595,34.4122672 32.6397668,34.4122672 L32.5790087,34.4122672 C31.401516,34.4122672 30.4436152,33.4392034 30.4436152,32.2430719 L30.4436152,25.9005065 L34.7751603,25.9005065 L34.7751603,32.2430719 Z M37.9637318,18.4580025 C37.7002915,18.8712051 37.2713703,19.1081332 36.7868222,19.1081332 L28.4314869,19.1081332 C27.9662974,19.1081332 27.5469388,18.8857761 27.2811662,18.4980433 C27.0153936,18.1104289 26.9553353,17.6337296 27.1166181,17.1905556 L30.8904956,6.81808007 C31.1400583,6.13205474 31.7346939,5.8876634 32.2080466,5.8876634 C32.7745773,5.8876634 33.2516618,6.20194853 33.4843149,6.72875817 L38.0658892,17.1013521 C38.2642566,17.5503309 38.2269388,18.0449183 37.9637318,18.4580025 Z" id="Shape" fill="#174D92"></path>
                        <path d="M26.812828,25.9005065 C27.2959767,25.9005065 27.6874636,25.5028227 27.6874636,25.0120261 C27.6874636,24.5212296 27.2959767,24.1235458 26.812828,24.1235458 L13.5506706,24.1235458 C13.0675219,24.1235458 12.676035,24.5212296 12.676035,25.0120261 L12.676035,34.4521895 C12.676035,34.9429861 13.0675219,35.3406699 13.5506706,35.3406699 L26.812828,35.3406699 C27.2959767,35.3406699 27.6874636,34.9429861 27.6874636,34.4521895 C27.6874636,33.961393 27.2959767,33.5637092 26.812828,33.5637092 L14.4253061,33.5637092 L14.4253061,25.9005065 L26.812828,25.9005065 Z" id="Shape" fill="#174D92"></path>
                        <path d="M26.812828,21.5608129 L22.2458309,21.5608129 L22.2458309,13.8976103 L25.5784257,13.8976103 C26.0615743,13.8976103 26.4530612,13.4999265 26.4530612,13.0091299 C26.4530612,12.5183333 26.0615743,12.1206495 25.5784257,12.1206495 L21.3711953,12.1206495 C20.8880466,12.1206495 20.4965598,12.5183333 20.4965598,13.0091299 L20.4965598,22.4492933 C20.4965598,22.9400899 20.8880466,23.3377737 21.3711953,23.3377737 L26.812828,23.3377737 C27.2959767,23.3377737 27.6874636,22.9400899 27.6874636,22.4492933 C27.6874636,21.9584967 27.2959767,21.5608129 26.812828,21.5608129 Z" id="Shape" fill="#174D92"></path>
                        <path d="M13.5506706,11.3348775 L25.7335277,11.3348775 C26.2166764,11.3348775 26.6081633,10.9371936 26.6081633,10.4463971 C26.6081633,9.95560049 26.2166764,9.55791667 25.7335277,9.55791667 L14.4253061,9.55791667 L14.4253061,1.89483252 L36.7314286,1.89483252 L36.7314286,7.36242239 C36.7314286,7.85321895 37.1229155,8.25090278 37.6060641,8.25090278 C38.0892128,8.25090278 38.4806997,7.85321895 38.4806997,7.36242239 L38.4806997,1.00635212 C38.4806997,0.515555556 38.0892128,0.117871732 37.6060641,0.117871732 L13.5506706,0.117871732 C13.0675219,0.117871732 12.676035,0.515555556 12.676035,1.00635212 L12.676035,10.4465155 C12.676035,10.9371936 13.0676385,11.3348775 13.5506706,11.3348775 Z" id="Shape" fill="#174D92"></path>
                        <path d="M19.6555102,22.4492933 L19.6555102,13.0091299 C19.6555102,12.5183333 19.2640233,12.1206495 18.7808746,12.1206495 L0.874635569,12.1206495 C0.39148688,12.1206495 0,12.5183333 0,13.0091299 L0,22.4492933 C0,22.9400899 0.39148688,23.3377737 0.874635569,23.3377737 L18.7808746,23.3377737 C19.2639067,23.3377737 19.6555102,22.9400899 19.6555102,22.4492933 Z M17.9062391,21.5608129 L1.74927114,21.5608129 L1.74927114,13.8976103 L17.9062391,13.8976103 L17.9062391,21.5608129 Z" id="Shape" fill="#174D92"></path>
                    </g>
                </g>
            </g>
        </g>
    </g>
</svg>