<?xml version="1.0" encoding="UTF-8"?>
<svg width="305px" height="106px" viewBox="0 0 305 106" version="1.1" xmlns="http://www.w3.org/2000/svg" xmlns:xlink="http://www.w3.org/1999/xlink">
    <!-- Generator: Sketch 49.2 (51160) - http://www.bohemiancoding.com/sketch -->
    <title>Contact-us</title>
    <desc>Created with Sketch.</desc>
    <defs></defs>
    <g id="Page-1-Copy" stroke="none" stroke-width="1" fill="none" fill-rule="evenodd">
        <g id="Habilis" transform="translate(-570.000000, -10861.000000)">
            <g id="Contact-us" transform="translate(565.000000, 10838.000000)">
                <path d="M19.12,80.96 C10.8,80.96 5.44,75.52 5.44,64.64 L5.44,39.44 C5.44,28.48 10.8,23.04 19.12,23.04 C27.92,23.04 32.72,28 33.52,38 L31.92,38 C31.12,28.88 26.96,24.56 19.12,24.56 C11.76,24.56 7.04,29.36 7.04,39.44 L7.04,64.64 C7.04,74.64 11.76,79.44 19.12,79.44 C27.12,79.44 31.6,75.12 32.24,66 L33.84,66 C33.2,76 28.08,80.96 19.12,80.96 Z M54.4,80.8 C46.72,80.8 42.16,75.52 42.16,67.84 L42.16,50.56 C42.16,42.88 46.72,37.6 54.4,37.6 C62.08,37.6 66.64,42.88 66.64,50.56 L66.64,67.84 C66.64,75.52 62.08,80.8 54.4,80.8 Z M54.4,79.36 C61.12,79.36 65.12,74.64 65.12,67.84 L65.12,50.56 C65.12,43.76 61.12,39.04 54.4,39.04 C47.68,39.04 43.68,43.76 43.68,50.56 L43.68,67.84 C43.68,74.64 47.68,79.36 54.4,79.36 Z M91.04,37.6 C97.44,37.6 101.28,42.8 101.28,52.8 L101.28,80 L99.76,80 L99.76,52.8 C99.76,43.68 96.48,39.04 90.88,39.04 C84.16,39.04 79.12,45.28 79.12,54.4 L79.12,80 L77.6,80 L77.6,38.4 L79.12,38.4 L79.12,46.32 C81.36,40.96 85.84,37.6 91.04,37.6 Z M124.8,78.72 L126.24,78.72 L126.24,80.16 L124.8,80.16 C117.92,80.16 114.48,76.96 114.48,69.92 L114.48,39.84 L108.72,39.84 L108.72,38.4 L114.48,38.4 L114.48,28.56 L116,28.56 L116,38.4 L125.76,38.4 L125.76,39.84 L116,39.84 L116,69.92 C116,76.16 119.12,78.72 124.8,78.72 Z M146.08,37.6 C153.2,37.6 157.2,42.08 157.2,49.84 L157.2,80 L155.68,80 L155.68,74.48 C153.92,78.32 150.24,80.8 144.16,80.8 C137.36,80.8 132.96,76.16 132.96,68.32 C132.96,60.72 137.84,56.32 146.64,56.32 L155.68,56.32 L155.68,49.84 C155.68,42.96 152.24,39.04 146.08,39.04 C139.92,39.04 135.92,43.04 135.84,48.08 L134.32,48.08 C134.72,42.16 138.96,37.6 146.08,37.6 Z M144.24,79.36 C152,79.36 155.68,75.04 155.68,67.36 L155.68,57.76 L146.64,57.76 C138.72,57.76 134.48,61.68 134.48,68.32 C134.48,75.2 138.32,79.36 144.24,79.36 Z M180.16,80.8 C172.64,80.8 168.16,75.52 168.16,67.84 L168.16,50.56 C168.16,42.88 172.56,37.6 179.92,37.6 C187.52,37.6 192,42.88 192,51.12 L190.48,51.12 C190.48,43.76 186.56,39.04 179.92,39.04 C173.52,39.04 169.68,43.76 169.68,50.56 L169.68,67.84 C169.68,74.64 173.6,79.36 180.16,79.36 C186.8,79.36 190.8,74.64 190.8,67.04 L192.32,67.04 C192.32,75.52 187.76,80.8 180.16,80.8 Z M214.56,78.72 L216,78.72 L216,80.16 L214.56,80.16 C207.68,80.16 204.24,76.96 204.24,69.92 L204.24,39.84 L198.48,39.84 L198.48,38.4 L204.24,38.4 L204.24,28.56 L205.76,28.56 L205.76,38.4 L215.52,38.4 L215.52,39.84 L205.76,39.84 L205.76,69.92 C205.76,76.16 208.88,78.72 214.56,78.72 Z M258.88,80.8 C250.56,80.8 245.28,75.36 245.28,65.28 L245.28,24 L246.88,24 L246.88,65.28 C246.88,74.48 251.52,79.28 258.88,79.28 C266.24,79.28 270.88,74.48 270.88,65.28 L270.88,24 L272.48,24 L272.48,65.28 C272.48,75.36 267.2,80.8 258.88,80.8 Z M294.16,80.8 C286.8,80.8 282.24,76.88 281.84,69.2 L283.36,69.2 C283.76,76.24 287.6,79.36 294.16,79.36 C299.44,79.36 304,76.08 304,70.8 C304,58.08 282.32,60.96 282.32,47.44 C282.32,41.68 287.04,37.6 293.28,37.6 C300,37.6 304.32,41.52 304.64,47.92 L303.12,47.92 C302.8,42.16 299.2,39.04 293.28,39.04 C288,39.04 283.84,42.32 283.84,47.44 C283.84,59.68 305.52,56.88 305.52,70.8 C305.52,76.72 300.24,80.8 294.16,80.8 Z" id="Contact-Us" fill="#414244"></path>
                <path d="M21.275,106.5 L21.275,108.9 L17.625,108.9 L17.625,124 L15.05,124 L15.05,108.9 L11.425,108.9 L11.425,106.5 L21.275,106.5 Z M29.9500001,119.875 L32.3750001,119.875 C32.1500001,122.675 30.4250001,124.275 27.5750001,124.275 C24.8250001,124.275 23.1000001,122.475 23.1000001,119.325 L23.1000001,115.4 C23.1000001,112.275 24.8250001,110.5 27.6000001,110.5 C30.4250001,110.5 32.2000001,112.275 32.2000001,115.4 L32.2000001,118.325 L25.5250001,118.325 L25.5250001,119.325 C25.5250001,121.125 26.3000001,121.95 27.6250001,121.95 C29.1000001,121.95 29.7250001,121.3 29.9500001,119.875 Z M27.6250001,112.775 C26.3000001,112.775 25.5250001,113.575 25.5250001,115.375 L25.5250001,116.5 L29.8000001,116.5 L29.8000001,115.375 C29.8000001,113.575 29.0000001,112.775 27.6250001,112.775 Z M36.8500002,124 L36.8500002,105.9 L39.2750002,105.9 L39.2750002,124 L36.8500002,124 Z M44.2250003,124 L44.2250003,105.9 L46.6500003,105.9 L46.6500003,124 L44.2250003,124 Z M65.5750005,110.825 L68.0000005,110.825 L68.0000005,124 L66.2750005,124 L66.0250005,122.525 C65.3500005,123.65 64.2500005,124.325 62.7500005,124.325 C60.4750005,124.325 59.0500005,122.7 59.0500005,119.1 L59.0500005,110.825 L61.4750005,110.825 L61.4750005,118.975 C61.4750005,121.125 62.0500005,122.025 63.3250005,122.025 C64.7000005,122.025 65.5750005,120.925 65.5750005,118.975 L65.5750005,110.825 Z M76.8250006,124.325 C73.8250006,124.325 72.1250006,122.375 72.1000006,119.95 L74.5000006,119.95 C74.5250006,121.15 75.2500006,122.075 76.7750006,122.075 C78.0500006,122.075 78.7750006,121.45 78.7750006,120.425 C78.7750006,117.775 72.3000006,118.675 72.3000006,114.175 C72.3000006,111.925 73.9750006,110.5 76.5500006,110.5 C79.3500006,110.5 80.8250006,112.25 80.9250006,114.7 L78.5500006,114.7 C78.5250006,113.45 77.8750006,112.7 76.5500006,112.7 C75.4000006,112.7 74.7000006,113.275 74.7000006,114.2 C74.7000006,116.7 81.2000006,115.725 81.2000006,120.45 C81.2000006,122.775 79.5500006,124.325 76.8250006,124.325 Z M97.2000008,110.5 C100.025001,110.5 101.475001,112.225 101.475001,115.25 L101.475001,124 L99.5000008,124 L99.3250008,122.775 C98.8000008,123.65 97.8500008,124.325 96.4000008,124.325 C93.9750008,124.325 92.3500008,122.725 92.3500008,120.25 C92.3500008,117.55 94.2250008,116.175 97.1250008,116.175 L99.0500008,116.175 L99.0500008,115.25 C99.0500008,113.7 98.4750008,112.825 97.1500008,112.825 C96.0750008,112.825 95.2750008,113.4 95.1500008,114.575 L92.7250008,114.575 C92.8500008,112.05 94.5500008,110.5 97.2000008,110.5 Z M99.0500008,120.075 L99.0500008,118.275 L97.1250008,118.275 C95.6500008,118.275 94.8000008,118.95 94.8000008,120.25 C94.8000008,121.45 95.5750008,122.175 96.9000008,122.175 C98.2250008,122.175 99.0500008,121.325 99.0500008,120.075 Z M111.425001,110.5 C113.975001,110.5 115.625001,112.375 115.625001,115.55 L115.625001,119.175 C115.625001,122.4 113.925001,124.3 111.425001,124.3 C110.250001,124.3 109.125001,123.65 108.450001,122.8 L108.275001,124 L106.525001,124 L106.525001,105.9 L108.900001,105.9 L108.900001,111.55 C109.550001,110.9 110.475001,110.5 111.425001,110.5 Z M113.150001,119.175 L113.150001,115.55 C113.150001,113.65 112.425001,112.8 111.025001,112.8 C109.700001,112.8 108.900001,113.85 108.900001,115.55 L108.900001,119.2 C108.900001,121.1 109.775001,122 111.025001,122 C112.375001,122 113.150001,121.125 113.150001,119.175 Z M124.675001,124.3 C121.825001,124.3 120.050001,122.525 120.050001,119.3 L120.050001,115.5 C120.050001,112.275 121.825001,110.5 124.675001,110.5 C127.550001,110.5 129.325001,112.275 129.325001,115.5 L129.325001,119.3 C129.325001,122.525 127.550001,124.3 124.675001,124.3 Z M124.675001,121.95 C126.050001,121.95 126.875001,121.15 126.875001,119.3 L126.875001,115.5 C126.875001,113.65 126.050001,112.85 124.675001,112.85 C123.325001,112.85 122.500001,113.65 122.500001,115.5 L122.500001,119.3 C122.500001,121.15 123.325001,121.95 124.675001,121.95 Z M140.475001,110.825 L142.900001,110.825 L142.900001,124 L141.175001,124 L140.925001,122.525 C140.250001,123.65 139.150001,124.325 137.650001,124.325 C135.375001,124.325 133.950001,122.7 133.950001,119.1 L133.950001,110.825 L136.375001,110.825 L136.375001,118.975 C136.375001,121.125 136.950001,122.025 138.225001,122.025 C139.600001,122.025 140.475001,120.925 140.475001,118.975 L140.475001,110.825 Z M152.975001,121.875 L153.775001,121.875 L153.775001,124.15 L152.850001,124.15 C150.225001,124.15 148.675001,122.475 148.675001,119.75 L148.675001,113.025 L146.825001,113.025 L146.825001,110.825 L148.675001,110.825 L148.675001,107.7 L151.075001,107.7 L151.075001,110.825 L153.525001,110.825 L153.525001,113.025 L151.075001,113.025 L151.075001,119.775 C151.075001,121.2 151.675001,121.875 152.975001,121.875 Z M171.900001,110.825 L174.400001,110.825 L170.175001,125.025 C169.550001,127.175 168.625001,128.75 166.650001,128.75 L165.350001,128.75 L165.350001,126.4 L166.175001,126.4 C167.200001,126.4 167.525001,125.675 167.850001,124.6 L168.425001,122.625 L164.175001,110.825 L166.725001,110.825 L169.450001,119.175 L171.900001,110.825 Z M182.425001,124.3 C179.575001,124.3 177.800001,122.525 177.800001,119.3 L177.800001,115.5 C177.800001,112.275 179.575001,110.5 182.425001,110.5 C185.300001,110.5 187.075001,112.275 187.075001,115.5 L187.075001,119.3 C187.075001,122.525 185.300001,124.3 182.425001,124.3 Z M182.425001,121.95 C183.800001,121.95 184.625001,121.15 184.625001,119.3 L184.625001,115.5 C184.625001,113.65 183.800001,112.85 182.425001,112.85 C181.075001,112.85 180.250001,113.65 180.250001,115.5 L180.250001,119.3 C180.250001,121.15 181.075001,121.95 182.425001,121.95 Z M198.225002,110.825 L200.650002,110.825 L200.650002,124 L198.925002,124 L198.675002,122.525 C198.000002,123.65 196.900002,124.325 195.400002,124.325 C193.125002,124.325 191.700002,122.7 191.700002,119.1 L191.700002,110.825 L194.125002,110.825 L194.125002,118.975 C194.125002,121.125 194.700002,122.025 195.975002,122.025 C197.350002,122.025 198.225002,120.925 198.225002,118.975 L198.225002,110.825 Z M211.075002,110.525 C211.625002,110.525 212.075002,110.575 212.450002,110.725 L212.450002,113.125 C211.975002,112.925 211.475002,112.825 210.825002,112.825 C209.175002,112.825 208.125002,113.9 208.125002,115.875 L208.125002,124 L205.700002,124 L205.700002,110.825 L207.425002,110.825 L207.700002,112.35 C208.375002,111.2 209.500002,110.525 211.075002,110.525 Z M228.775002,110.525 C231.275002,110.525 232.975002,112.4 232.975002,115.625 L232.975002,119.25 C232.975002,122.45 231.325002,124.3 228.775002,124.3 C227.825002,124.3 226.900002,123.925 226.250002,123.25 L226.250002,128.5 L223.875002,128.5 L223.875002,110.8 L225.625002,110.8 L225.800002,112.025 C226.450002,111.175 227.600002,110.525 228.775002,110.525 Z M230.500002,119.25 L230.500002,115.625 C230.500002,113.675 229.725002,112.8 228.375002,112.8 C227.125002,112.8 226.250002,113.725 226.250002,115.6 L226.250002,119.25 C226.250002,120.975 227.050002,122.025 228.375002,122.025 C229.775002,122.025 230.500002,121.175 230.500002,119.25 Z M243.075002,110.525 C243.625002,110.525 244.075002,110.575 244.450002,110.725 L244.450002,113.125 C243.975002,112.925 243.475002,112.825 242.825002,112.825 C241.175002,112.825 240.125002,113.9 240.125002,115.875 L240.125002,124 L237.700002,124 L237.700002,110.825 L239.425002,110.825 L239.700002,112.35 C240.375002,111.2 241.500002,110.525 243.075002,110.525 Z M252.575002,124.3 C249.725002,124.3 247.950002,122.525 247.950002,119.3 L247.950002,115.5 C247.950002,112.275 249.725002,110.5 252.575002,110.5 C255.450002,110.5 257.225002,112.275 257.225002,115.5 L257.225002,119.3 C257.225002,122.525 255.450002,124.3 252.575002,124.3 Z M252.575002,121.95 C253.950002,121.95 254.775002,121.15 254.775002,119.3 L254.775002,115.5 C254.775002,113.65 253.950002,112.85 252.575002,112.85 C251.225002,112.85 250.400002,113.65 250.400002,115.5 L250.400002,119.3 C250.400002,121.15 251.225002,121.95 252.575002,121.95 Z M263.700002,108.65 C262.775002,108.65 262.175002,108 262.175002,107.125 C262.175002,106.225 262.775002,105.575 263.700002,105.575 C264.575002,105.575 265.225002,106.225 265.225002,107.125 C265.225002,107.975 264.575002,108.65 263.700002,108.65 Z M260.150002,128.825 L260.150002,126.5 C261.825002,126.475 262.500002,125.65 262.500002,124 L262.500002,110.825 L264.900002,110.825 L264.900002,123.9 C264.900002,126.975 263.325002,128.8 260.150002,128.825 Z M276.825002,119.875 L279.250002,119.875 C279.025002,122.675 277.300002,124.275 274.450002,124.275 C271.700002,124.275 269.975002,122.475 269.975002,119.325 L269.975002,115.4 C269.975002,112.275 271.700002,110.5 274.475002,110.5 C277.300002,110.5 279.075002,112.275 279.075002,115.4 L279.075002,118.325 L272.400002,118.325 L272.400002,119.325 C272.400002,121.125 273.175002,121.95 274.500002,121.95 C275.975002,121.95 276.600002,121.3 276.825002,119.875 Z M274.500002,112.775 C273.175002,112.775 272.400002,113.575 272.400002,115.375 L272.400002,116.5 L276.675002,116.5 L276.675002,115.375 C276.675002,113.575 275.875002,112.775 274.500002,112.775 Z M287.925002,124.275 C285.175002,124.275 283.475002,122.525 283.475002,119.45 L283.475002,115.3 C283.475002,112.25 285.175002,110.5 287.925002,110.5 C290.775002,110.5 292.400002,112.25 292.500002,115.3 L290.050002,115.3 C290.000002,113.625 289.275002,112.825 287.950002,112.825 C286.675002,112.825 285.925002,113.625 285.925002,115.3 L285.925002,119.45 C285.925002,121.125 286.675002,121.95 287.950002,121.95 C289.300002,121.95 290.050002,121.125 290.125002,119.45 L292.550002,119.45 C292.475002,122.525 290.725002,124.275 287.925002,124.275 Z M301.875002,121.875 L302.675002,121.875 L302.675002,124.15 L301.750002,124.15 C299.125002,124.15 297.575002,122.475 297.575002,119.75 L297.575002,113.025 L295.725002,113.025 L295.725002,110.825 L297.575002,110.825 L297.575002,107.7 L299.975002,107.7 L299.975002,110.825 L302.425002,110.825 L302.425002,113.025 L299.975002,113.025 L299.975002,119.775 C299.975002,121.2 300.575002,121.875 301.875002,121.875 Z M307.875002,124.275 C306.975002,124.275 306.350002,123.675 306.350002,122.75 C306.350002,121.85 306.975002,121.25 307.875002,121.25 C308.775002,121.25 309.400002,121.85 309.400002,122.75 C309.400002,123.675 308.775002,124.275 307.875002,124.275 Z" id="Tell-us-about-your-p" fill="#000000" opacity="0.331125453"></path>
            </g>
        </g>
    </g>
</svg>