<?xml version="1.0" encoding="UTF-8"?>
<svg width="350px" height="161px" viewBox="0 0 350 161" version="1.1" xmlns="http://www.w3.org/2000/svg" xmlns:xlink="http://www.w3.org/1999/xlink">
    <!-- Generator: Sketch 49.3 (51167) - http://www.bohemiancoding.com/sketch -->
    <title>contact-image</title>
    <desc>Created with Sketch.</desc>
    <defs></defs>
    <g id="Page-1-Copy" stroke="none" stroke-width="1" fill="none" fill-rule="evenodd">
        <g id="Habilis" transform="translate(-873.000000, -11821.000000)">
            <g id="Group-23" transform="translate(145.000000, 11540.000000)">
                <g id="contact-image" transform="translate(728.333333, 281.476190)">
                    <g id="Group-4">
                        <g id="Group-3">
                            <g id="Group-2" transform="translate(93.871728, 0.167430)" fill="#FFFFFF">
                                <g id="Group" transform="translate(0.000000, -0.000000)">
                                    <path d="M25.3631956,0.865463268 L25.3631956,27.1440752 L1.590169,27.1440752 L1.590169,0.865463268 L0,0.865463268 L0,55.9403985 L1.590169,55.9403985 L1.590169,28.6389663 L25.3631956,28.6389663 L25.3631956,55.9403985 L26.9533646,55.9403985 L26.9533646,0.865463268 L25.3631956,0.865463268 Z M75.1354854,55.9403985 L70.8420291,39.9686673 L50.9649165,39.9686673 L46.6714602,55.9403985 L45.0017828,55.9403985 L59.9493714,0.865463268 L61.8575742,0.865463268 L76.8051628,55.9403985 L75.1354854,55.9403985 Z M51.3624588,38.4737762 L70.4444868,38.4737762 L64.481353,16.2864451 L60.9034728,2.91110372 C59.710846,7.39577701 58.5182193,11.8017718 57.3255925,16.2864451 L51.3624588,38.4737762 Z M110.834779,27.3014322 C119.103658,28.7963233 121.965962,34.4611737 121.965962,41.070166 C121.965962,50.5115834 116.082337,55.9403985 106.461815,55.9403985 L94.853581,55.9403985 L94.853581,0.865463268 L105.984764,0.865463268 C114.492168,0.865463268 119.660217,5.90088592 119.660217,14.6341971 C119.660217,20.2990475 117.354472,25.6491841 110.834779,27.3014322 Z M105.984764,2.36035437 L96.44375,2.36035437 L96.44375,26.5933259 L106.620832,26.5933259 C114.651185,26.5933259 118.070048,21.0071539 118.070048,14.6341971 C118.070048,6.6876707 113.617575,2.36035437 105.984764,2.36035437 Z M106.461815,54.4455074 C115.207744,54.4455074 120.375793,49.7247986 120.375793,41.070166 C120.375793,34.2251383 116.161846,28.088217 106.620832,28.088217 L96.44375,28.088217 L96.44375,54.4455074 L106.461815,54.4455074 Z M141.286516,0.865463268 L141.286516,55.9403985 L142.876685,55.9403985 L142.876685,0.865463268 L141.286516,0.865463268 Z M168.23988,54.4455074 L168.23988,0.865463268 L166.649711,0.865463268 L166.649711,55.9403985 L188.912077,55.9403985 L188.912077,54.4455074 L168.23988,54.4455074 Z M206.960496,0.865463268 L206.960496,55.9403985 L208.550665,55.9403985 L208.550665,0.865463268 L206.960496,0.865463268 Z M242.103231,56.8058617 C250.133584,56.8058617 255.222125,51.2983682 255.222125,44.0599482 C255.222125,27.93086 230.892539,26.9080398 230.892539,12.3525212 C230.892539,5.90088592 235.663046,1.4948911 242.103231,1.4948911 C248.463907,1.4948911 252.439329,5.66485048 253.234414,13.0606275 L254.824583,13.0606275 C254.188515,5.03542265 249.258991,0 242.023722,0 C234.708945,0 229.30237,5.03542265 229.30237,12.3525212 C229.30237,28.0095385 253.631956,28.9536802 253.631956,44.0599482 C253.631956,50.432905 249.3385,55.3109706 242.182739,55.3109706 C235.265504,55.3109706 231.36959,50.8262973 230.494997,43.6665558 L228.904828,43.6665558 C229.540896,51.2983682 234.072877,56.8058617 242.103231,56.8058617 Z" id="HABILIS"></path>
                                </g>
                            </g>
                            <g id="habilis-logo" transform="translate(0.000000, 20.535714)">
                                <path d="M18.8918061,2.58964593 C9.91487303,2.58964593 2.61262351,9.80366445 2.61262351,18.6748068 L2.61262351,55.6773876 L49.0364051,55.6773876 C58.0133382,55.6773876 65.3155877,48.4633691 65.3155877,39.5922266 L65.3155877,2.58964593 L18.8918061,2.58964593 Z" id="Path"></path>
                                <path d="M48.265918,55.4711158 C57.5534553,55.4711158 65.106173,48.0167518 65.106173,38.8502436 L65.106173,1.5010947 L18.3559815,1.5010947 C9.06844418,1.5010947 1.51572645,8.95545874 1.51572645,18.1219669 L1.51572645,55.4711158 L48.265918,55.4711158 Z M66.6218994,38.8502436 C66.6218994,48.8469308 58.3894139,56.9722105 48.265918,56.9722105 L0,56.9722105 L8.41397203e-17,18.1219669 C8.41397203e-17,8.1252798 8.23248563,0 18.3559815,0 L66.6218994,0 L66.6218994,38.8502436 Z" id="Path" fill="#FFFFFF" fill-rule="nonzero"></path>
                                <polygon id="Combined-Shape" fill="#FFFFFF" fill-rule="nonzero" points="16.5600281 28.3453554 16.5600281 56.9722105 15.1143058 56.9722105 15.1143058 28.3453554 1.30631175 28.3453554 1.30631175 26.9083249 49.9655694 26.9083249 49.9655694 1.29482297 51.4158814 1.29482297 51.4158814 26.9083249 66.6218994 26.9083249 66.6218994 28.3453554 19.4832436 28.3453554"></polygon>
                            </g>
                        </g>
                        <path d="M100.105357,98.2818691 C96.4676717,98.2818691 94.2189208,95.834699 94.0535714,92.2300835 L95.5417154,92.2300835 C95.7401346,95.1733016 97.3936279,96.826795 100.072287,96.826795 C102.949366,96.826795 104.503649,94.9748824 104.503649,92.3954328 C104.503649,86.6412761 94.3181304,86.4759267 94.3181304,79.7958137 C94.3181304,76.6541764 96.6660909,74.3392857 100.006147,74.3392857 C103.412344,74.3392857 105.594955,76.7203161 105.793374,80.2587918 L104.27216,80.2587918 C104.073741,77.2825038 102.453318,75.7943598 100.072287,75.7943598 C97.4928375,75.7943598 95.8393442,77.3817134 95.8393442,79.7958137 C95.8393442,85.4507609 106.024863,85.5169006 106.024863,92.3954328 C106.024863,95.5040003 103.908392,98.2818691 100.105357,98.2818691 Z M128.710792,74.7361241 L128.710792,76.1581284 L123.485753,76.1581284 L123.485753,97.8850307 L121.997609,97.8850307 L121.997609,76.1581284 L116.83871,76.1581284 L116.83871,74.7361241 L128.710792,74.7361241 Z M146.436241,98.2818691 C142.467857,98.2818691 140.020687,95.6032099 140.020687,91.0395683 L140.020687,81.6146564 C140.020687,76.984875 142.467857,74.3392857 146.436241,74.3392857 C150.437695,74.3392857 152.884865,76.984875 152.884865,81.6146564 L152.884865,91.0395683 C152.884865,95.6032099 150.437695,98.2818691 146.436241,98.2818691 Z M146.436241,96.826795 C149.577878,96.826795 151.363651,94.8095331 151.363651,91.0395683 L151.363651,81.6146564 C151.363651,77.8116217 149.577878,75.7943598 146.436241,75.7943598 C143.327673,75.7943598 141.5419,77.8116217 141.5419,81.6146564 L141.5419,91.0395683 C141.5419,94.8095331 143.327673,96.826795 146.436241,96.826795 Z M177.125077,74.7361241 L178.646291,74.7361241 L178.646291,97.8850307 L177.092007,97.8850307 L169.651287,82.0114948 C169.0891,80.7548398 168.196213,78.7045081 167.799375,77.6793422 L167.733235,77.7124121 C167.799375,79.1013465 167.832445,81.0524686 167.832445,82.5075428 L167.832445,97.8850307 L166.344301,97.8850307 L166.344301,74.7361241 L167.898584,74.7361241 L175.273165,90.5104505 C175.901492,91.8332451 176.761309,93.8174371 177.224287,94.9418126 L177.290426,94.9087427 C177.224287,93.6190179 177.125077,91.5356163 177.125077,90.0474723 L177.125077,74.7361241 Z M194.255268,96.4960963 L203.481761,96.4960963 L203.481761,97.8850307 L192.767124,97.8850307 L192.767124,74.7361241 L203.250272,74.7361241 L203.250272,76.1250585 L194.255268,76.1250585 L194.255268,85.417691 L202.621945,85.417691 L202.621945,86.8066254 L194.255268,86.8066254 L194.255268,96.4960963 Z M251.168509,74.7361241 L252.755863,74.7361241 L247.696173,97.8850307 L246.00961,97.8850307 L242.867973,83.5988483 C242.471134,81.8792153 242.041226,79.0682766 241.809737,77.3486436 L241.743597,77.3486436 C241.512108,79.0682766 241.0822,81.8792153 240.685362,83.5988483 L237.543724,97.8850307 L235.857161,97.8850307 L230.797471,74.7361241 L232.384825,74.7361241 L235.592602,90.4112409 C235.923301,91.9985944 236.452419,94.5449742 236.650838,95.7024195 L236.716978,95.7024195 L237.808283,90.2128217 L240.949921,75.0998926 L242.603414,75.0998926 L245.711981,90.0144025 C246.10882,92.097804 246.571798,94.4788344 246.836357,95.7024195 L246.902496,95.7024195 C247.133986,94.4788344 247.663103,91.8993848 247.993802,90.2458915 L251.168509,74.7361241 Z M270.415172,98.2818691 C266.446788,98.2818691 263.999618,95.6032099 263.999618,91.0395683 L263.999618,81.6146564 C263.999618,76.984875 266.446788,74.3392857 270.415172,74.3392857 C274.416626,74.3392857 276.863796,76.984875 276.863796,81.6146564 L276.863796,91.0395683 C276.863796,95.6032099 274.416626,98.2818691 270.415172,98.2818691 Z M270.415172,96.826795 C273.556809,96.826795 275.342582,94.8095331 275.342582,91.0395683 L275.342582,81.6146564 C275.342582,77.8116217 273.556809,75.7943598 270.415172,75.7943598 C267.306604,75.7943598 265.520832,77.8116217 265.520832,81.6146564 L265.520832,91.0395683 C265.520832,94.8095331 267.306604,96.826795 270.415172,96.826795 Z M300.442611,97.8850307 L294.886873,88.4601187 L291.811376,88.4601187 L291.811376,97.8850307 L290.323232,97.8850307 L290.323232,74.7361241 L295.184502,74.7361241 C299.450515,74.7361241 301.732336,77.1171545 301.732336,81.4162372 C301.732336,85.4507609 299.781214,87.9640707 296.507297,88.393979 L302.162244,97.8850307 L300.442611,97.8850307 Z M291.811376,76.1581284 L291.811376,87.0711843 L295.515201,87.0711843 C298.491489,87.0711843 300.211122,85.1200622 300.211122,81.4823769 C300.211122,77.9108313 298.491489,76.1581284 295.184502,76.1581284 L291.811376,76.1581284 Z M325.64185,97.8850307 L318.13499,86.0790883 L316.183868,88.6585379 L316.183868,97.8850307 L314.695724,97.8850307 L314.695724,74.7361241 L316.183868,74.7361241 L316.183868,86.3436473 L317.638942,84.2933155 L324.682824,74.7361241 L326.534736,74.7361241 L319.094016,84.7893635 L327.427622,97.8850307 L325.64185,97.8850307 Z M343.532648,98.2818691 C339.894962,98.2818691 337.646212,95.834699 337.480862,92.2300835 L338.969006,92.2300835 C339.167425,95.1733016 340.820919,96.826795 343.499578,96.826795 C346.376656,96.826795 347.93094,94.9748824 347.93094,92.3954328 C347.93094,86.6412761 337.745421,86.4759267 337.745421,79.7958137 C337.745421,76.6541764 340.093382,74.3392857 343.433438,74.3392857 C346.839634,74.3392857 349.022246,76.7203161 349.220665,80.2587918 L347.699451,80.2587918 C347.501032,77.2825038 345.880608,75.7943598 343.499578,75.7943598 C340.920128,75.7943598 339.266635,77.3817134 339.266635,79.7958137 C339.266635,85.4507609 349.452154,85.5169006 349.452154,92.3954328 C349.452154,95.5040003 347.335682,98.2818691 343.532648,98.2818691 Z" id="STONE-WORKS" fill="#FFFFFF"></path>
                    </g>
                    <g id="Group-6" opacity="0.662986866" transform="translate(95.053571, 136.357143)">
                        <g id="Group-5" transform="translate(-0.000000, 0.000000)">
                            <path d="M6.17107143,5.0625 L7.31696429,5.0625 L7.31696429,18 L6.17107143,18 L6.17107143,11.9563393 L1.56901786,11.9563393 L1.56901786,18 L0.423125,18 L0.423125,5.0625 L1.56901786,5.0625 L1.56901786,10.884375 L6.17107143,10.884375 L6.17107143,5.0625 Z M15.7817857,18 L15.0240179,14.9689286 L10.9209821,14.9689286 L10.1632143,18 L8.94339286,18 L12.3441071,5.0625 L13.6008929,5.0625 L17.0016071,18 L15.7817857,18 Z M11.1797321,13.9339286 L14.7652679,13.9339286 L13.4345536,8.57410714 C13.23125,7.779375 13.0464286,6.85526786 12.9909821,6.54107143 L12.9540179,6.54107143 C12.8985714,6.85526786 12.71375,7.779375 12.5104464,8.57410714 L11.1797321,13.9339286 Z M23.4149107,11.2909821 C24.7825893,11.6051786 25.6327679,12.7325893 25.6327679,14.4699107 C25.6327679,16.7801786 24.2466071,18 21.9548214,18 L18.6280357,18 L18.6280357,5.0625 L21.6591071,5.0625 C23.8215179,5.0625 25.0967857,6.28232143 25.0967857,8.42625 C25.0967857,10.0341964 24.4314286,11.01375 23.4149107,11.2909821 Z M21.6591071,6.13446429 L19.7739286,6.13446429 L19.7739286,10.8289286 L21.6960714,10.8289286 C23.193125,10.8289286 23.9324107,10.0157143 23.9324107,8.42625 C23.9324107,6.85526786 23.193125,6.13446429 21.6591071,6.13446429 Z M21.9548214,16.9280357 C23.6366964,16.9280357 24.4683929,16.1702679 24.4683929,14.4699107 C24.4683929,12.7880357 23.3779464,11.9008929 21.7515179,11.9008929 L19.7739286,11.9008929 L19.7739286,16.9280357 L21.9548214,16.9280357 Z M27.5549107,5.0625 L28.7008036,5.0625 L28.7008036,18 L27.5549107,18 L27.5549107,5.0625 Z M32.6929464,16.9095536 L37.424375,16.9095536 L37.424375,18 L31.5470536,18 L31.5470536,5.0625 L32.6929464,5.0625 L32.6929464,16.9095536 Z M38.9953571,5.0625 L40.14125,5.0625 L40.14125,18 L38.9953571,18 L38.9953571,5.0625 Z M45.7598214,18.2402679 C43.6158929,18.2402679 42.21125,16.8171429 42.1558036,14.6732143 L43.3016964,14.6732143 C43.3571429,16.2811607 44.28125,17.1313393 45.7228571,17.1313393 C47.2938393,17.1313393 48.0700893,16.1517857 48.0700893,14.7471429 C48.0700893,11.7530357 42.340625,11.7345536 42.340625,7.98267857 C42.340625,6.20839286 43.6898214,4.82223214 45.6858929,4.82223214 C47.7189286,4.82223214 48.9757143,6.26383929 49.068125,8.296875 L47.9222321,8.296875 C47.8483036,6.67044643 46.9611607,5.93116071 45.7228571,5.93116071 C44.3182143,5.93116071 43.505,6.744375 43.505,7.98267857 C43.505,10.9767857 49.2344643,10.8658929 49.2344643,14.7471429 C49.2344643,16.5029464 48.033125,18.2402679 45.7598214,18.2402679 Z M51.2120536,18.1848214 C50.6945536,18.1848214 50.3433929,17.8336607 50.3433929,17.3161607 C50.3433929,16.7986607 50.6945536,16.4475 51.2120536,16.4475 C51.7295536,16.4475 52.0807143,16.7986607 52.0807143,17.3161607 C52.0807143,17.8336607 51.7295536,18.1848214 51.2120536,18.1848214 Z M57.4959821,18.2217857 C55.4259821,18.2217857 53.9658929,16.835625 53.9658929,14.3405357 L53.9658929,8.72196429 C53.9658929,6.226875 55.3890179,4.84071429 57.4220536,4.84071429 C59.5290179,4.84071429 60.8782143,6.17142857 61.0075893,8.57410714 L59.8986607,8.57410714 C59.7692857,6.744375 58.8821429,5.87571429 57.4220536,5.87571429 C56.0358929,5.87571429 55.0748214,6.79982143 55.0748214,8.72196429 L55.0748214,14.3405357 C55.0748214,16.2626786 56.0728571,17.1867857 57.4959821,17.1867857 C58.9745536,17.1867857 59.8247321,16.2811607 60.0095536,14.4883929 L61.1184821,14.4883929 C60.9336607,16.8541071 59.6214286,18.2217857 57.4959821,18.2217857 Z M66.5522321,18.2402679 C64.2234821,18.2402679 62.8373214,16.5953571 62.8373214,13.989375 L62.8373214,9.073125 C62.8373214,6.46714286 64.2234821,4.82223214 66.5522321,4.82223214 C68.8809821,4.82223214 70.2671429,6.46714286 70.2671429,9.073125 L70.2671429,13.989375 C70.2671429,16.5953571 68.8809821,18.2402679 66.5522321,18.2402679 Z M66.5522321,17.1313393 C68.2341071,17.1313393 69.1027679,15.9854464 69.1027679,13.989375 L69.1027679,9.073125 C69.1027679,7.07705357 68.2341071,5.93116071 66.5522321,5.93116071 C64.8703571,5.93116071 64.0016964,7.07705357 64.0016964,9.073125 L64.0016964,13.989375 C64.0016964,15.9854464 64.8703571,17.1313393 66.5522321,17.1313393 Z" id="HABILIS.CO" fill="#FFFFFF"></path>
                            <path d="M121.573571,18 L121.573571,17.0758929 C121.573571,12.6771429 126.56375,10.9583036 126.56375,7.79785714 C126.56375,6.72589286 125.861429,5.91267857 124.641607,5.91267857 C123.514196,5.91267857 122.793393,6.65196429 122.756429,8.11205357 L121.6475,8.11205357 C121.758393,6.17142857 122.904286,4.87767857 124.641607,4.87767857 C126.508304,4.87767857 127.672679,6.17142857 127.672679,7.79785714 C127.672679,11.4942857 122.6825,13.213125 122.6825,16.965 L127.802054,16.965 L127.802054,18 L121.573571,18 Z M134.233839,11.3279464 C135.305804,11.8269643 135.934196,12.954375 135.934196,14.3590179 L135.934196,14.6732143 C135.934196,16.8725893 134.714375,18.1848214 132.644375,18.1848214 C130.574375,18.1848214 129.354554,16.8725893 129.354554,14.6732143 L129.354554,14.3590179 C129.354554,12.954375 129.982946,11.8269643 131.054911,11.3279464 C130.112321,10.8104464 129.576339,9.72 129.576339,8.42625 L129.576339,8.20446429 C129.576339,6.11598214 130.722232,4.87767857 132.644375,4.87767857 C134.566518,4.87767857 135.712411,6.11598214 135.712411,8.20446429 L135.712411,8.42625 C135.712411,9.72 135.176429,10.8104464 134.233839,11.3279464 Z M130.685268,8.20446429 L130.685268,8.42625 C130.685268,9.92330357 131.406071,10.8104464 132.644375,10.8104464 C133.882679,10.8104464 134.603482,9.92330357 134.603482,8.42625 L134.603482,8.20446429 C134.603482,6.78133929 133.882679,5.94964286 132.644375,5.94964286 C131.406071,5.94964286 130.685268,6.78133929 130.685268,8.20446429 Z M134.825268,14.6732143 L134.825268,14.3590179 C134.825268,12.8065179 134.012054,11.8824107 132.644375,11.8824107 C131.276696,11.8824107 130.463482,12.8065179 130.463482,14.3590179 L130.463482,14.6732143 C130.463482,16.2072321 131.276696,17.1128571 132.644375,17.1128571 C134.012054,17.1128571 134.825268,16.2072321 134.825268,14.6732143 Z M139.464286,5.0625 L140.573214,5.0625 L140.573214,17.9075893 L139.464286,17.9075893 L139.464286,6.52258929 L137.338839,8.296875 L137.338839,6.89223214 L139.464286,5.0625 Z M143.678214,18.1848214 C143.160714,18.1848214 142.809554,17.8336607 142.809554,17.3161607 C142.809554,16.7986607 143.160714,16.4475 143.678214,16.4475 C144.195714,16.4475 144.546875,16.7986607 144.546875,17.3161607 C144.546875,17.8336607 144.195714,18.1848214 143.678214,18.1848214 Z M151.163482,11.3279464 C152.235446,11.8269643 152.863839,12.954375 152.863839,14.3590179 L152.863839,14.6732143 C152.863839,16.8725893 151.644018,18.1848214 149.574018,18.1848214 C147.504018,18.1848214 146.284196,16.8725893 146.284196,14.6732143 L146.284196,14.3590179 C146.284196,12.954375 146.912589,11.8269643 147.984554,11.3279464 C147.041964,10.8104464 146.505982,9.72 146.505982,8.42625 L146.505982,8.20446429 C146.505982,6.11598214 147.651875,4.87767857 149.574018,4.87767857 C151.496161,4.87767857 152.642054,6.11598214 152.642054,8.20446429 L152.642054,8.42625 C152.642054,9.72 152.106071,10.8104464 151.163482,11.3279464 Z M147.614911,8.20446429 L147.614911,8.42625 C147.614911,9.92330357 148.335714,10.8104464 149.574018,10.8104464 C150.812321,10.8104464 151.533125,9.92330357 151.533125,8.42625 L151.533125,8.20446429 C151.533125,6.78133929 150.812321,5.94964286 149.574018,5.94964286 C148.335714,5.94964286 147.614911,6.78133929 147.614911,8.20446429 Z M151.754911,14.6732143 L151.754911,14.3590179 C151.754911,12.8065179 150.941696,11.8824107 149.574018,11.8824107 C148.206339,11.8824107 147.393125,12.8065179 147.393125,14.3590179 L147.393125,14.6732143 C147.393125,16.2072321 148.206339,17.1128571 149.574018,17.1128571 C150.941696,17.1128571 151.754911,16.2072321 151.754911,14.6732143 Z M157.743125,9.36883929 C159.443482,9.36883929 160.515446,10.6071429 160.515446,12.8619643 L160.515446,14.1557143 C160.515446,16.9465179 159.480446,18.1848214 157.632232,18.1848214 C155.857946,18.1848214 154.730536,17.0204464 154.656607,14.9319643 L155.747054,14.9319643 C155.8025,16.4105357 156.467857,17.1128571 157.632232,17.1128571 C158.778125,17.1128571 159.406518,16.3550893 159.406518,14.1557143 L159.406518,12.8804464 C159.406518,11.2170536 158.870536,10.4223214 157.595268,10.4223214 C156.652679,10.4223214 156.042768,10.9767857 155.820982,11.8269643 L154.7675,11.8269643 L154.7675,5.0625 L160.145804,5.0625 L160.145804,6.0975 L155.857946,6.0975 L155.857946,10.108125 C156.301518,9.66455357 156.929911,9.36883929 157.743125,9.36883929 Z M161.180804,5.04401786 L167.132054,5.04401786 L167.132054,5.65392857 L163.565,18.0369643 L162.400625,18.0369643 L165.838304,6.11598214 L161.180804,6.11598214 L161.180804,5.04401786 Z M167.520179,18.1848214 C167.002679,18.1848214 166.651518,17.8336607 166.651518,17.3161607 C166.651518,16.7986607 167.002679,16.4475 167.520179,16.4475 C168.037679,16.4475 168.388839,16.7986607 168.388839,17.3161607 C168.388839,17.8336607 168.037679,18.1848214 167.520179,18.1848214 Z M173.415982,18.1848214 C171.530804,18.1848214 170.274018,16.835625 170.274018,14.8210714 L170.274018,8.25991071 C170.274018,6.226875 171.530804,4.87767857 173.415982,4.87767857 C175.301161,4.87767857 176.557946,6.226875 176.557946,8.25991071 L176.557946,14.8210714 C176.557946,16.835625 175.301161,18.1848214 173.415982,18.1848214 Z M173.415982,17.1128571 C174.709732,17.1128571 175.4675,16.2626786 175.4675,14.8210714 L175.4675,8.25991071 C175.4675,6.79982143 174.709732,5.94964286 173.415982,5.94964286 C172.122232,5.94964286 171.364464,6.79982143 171.364464,8.25991071 L171.364464,14.8210714 C171.364464,16.2626786 172.122232,17.1128571 173.415982,17.1128571 Z M185.115179,13.471875 L185.115179,14.5438393 L183.544196,14.5438393 L183.544196,18 L182.435268,18 L182.435268,14.5438393 L177.833214,14.5438393 L177.833214,13.9339286 L180.827321,5.0625 L181.991696,5.0625 L179.145446,13.471875 L182.435268,13.471875 L182.435268,8.70348214 L183.544196,8.70348214 L183.544196,13.471875 L185.115179,13.471875 Z M187.240625,5.0625 L188.349554,5.0625 L188.349554,17.9075893 L187.240625,17.9075893 L187.240625,6.52258929 L185.115179,8.296875 L185.115179,6.89223214 L187.240625,5.0625 Z M195.576071,11.3279464 C196.648036,11.8269643 197.276429,12.954375 197.276429,14.3590179 L197.276429,14.6732143 C197.276429,16.8725893 196.056607,18.1848214 193.986607,18.1848214 C191.916607,18.1848214 190.696786,16.8725893 190.696786,14.6732143 L190.696786,14.3590179 C190.696786,12.954375 191.325179,11.8269643 192.397143,11.3279464 C191.454554,10.8104464 190.918571,9.72 190.918571,8.42625 L190.918571,8.20446429 C190.918571,6.11598214 192.064464,4.87767857 193.986607,4.87767857 C195.90875,4.87767857 197.054643,6.11598214 197.054643,8.20446429 L197.054643,8.42625 C197.054643,9.72 196.518661,10.8104464 195.576071,11.3279464 Z M192.0275,8.20446429 L192.0275,8.42625 C192.0275,9.92330357 192.748304,10.8104464 193.986607,10.8104464 C195.224911,10.8104464 195.945714,9.92330357 195.945714,8.42625 L195.945714,8.20446429 C195.945714,6.78133929 195.224911,5.94964286 193.986607,5.94964286 C192.748304,5.94964286 192.0275,6.78133929 192.0275,8.20446429 Z M196.1675,14.6732143 L196.1675,14.3590179 C196.1675,12.8065179 195.354286,11.8824107 193.986607,11.8824107 C192.618929,11.8824107 191.805714,12.8065179 191.805714,14.3590179 L191.805714,14.6732143 C191.805714,16.2072321 192.618929,17.1128571 193.986607,17.1128571 C195.354286,17.1128571 196.1675,16.2072321 196.1675,14.6732143 Z" id="281.857.0418" fill="#FFFFFF"></path>
                            <path d="M96.2160714,1.10892857 L96.2160714,23.2875" id="Line" stroke="#FFFFFF" stroke-width="0.739285714" opacity="0.211163949" stroke-linecap="square"></path>
                        </g>
                    </g>
                </g>
            </g>
        </g>
    </g>
</svg>