<?xml version="1.0" encoding="UTF-8"?>
<svg width="53px" height="16px" viewBox="0 0 53 16" version="1.1" xmlns="http://www.w3.org/2000/svg" xmlns:xlink="http://www.w3.org/1999/xlink">
    <!-- Generator: Sketch 49 (51002) - http://www.bohemiancoding.com/sketch -->
    <title>counter-icon</title>
    <desc>Created with Sketch.</desc>
    <defs></defs>
    <g id="Page-1-Copy" stroke="none" stroke-width="1" fill="none" fill-rule="evenodd">
        <g id="Habilis" transform="translate(-870.000000, -2540.000000)">
            <g id="Group-41" transform="translate(-66.000000, 2071.000000)">
                <g id="Group-37" transform="translate(837.000000, 162.000000)">
                    <g id="counter-icon" transform="translate(98.000000, 307.000000)">
                        <path d="M6.46005683,5 L45.6273245,5 C46.386716,5 47.0023245,5.61560847 47.0023245,6.375 C47.0023245,6.58676449 46.953412,6.79566738 46.8594009,6.98542013 L42.7720196,15.2354201 C42.5400057,15.7037187 42.0625654,16 41.5399432,16 L2.37267549,16 C1.61328396,16 0.997675493,15.3843915 0.997675493,14.625 C0.997675493,14.4132355 1.04658796,14.2043326 1.14059909,14.0145799 L5.22798042,5.76457987 C5.45999433,5.29628133 5.93743461,5 6.46005683,5 Z" id="Rectangle-8-Copy" fill="#DEEBFA"></path>
                        <path d="M12.5212949,0.6875 C12.2442939,0.6875 11.9943495,0.853737763 11.8872554,1.10919887 L7.59026478,11.3591989 C7.55497774,11.4433722 7.53680422,11.5337293 7.53680422,11.625 C7.53680422,12.0046958 7.84460846,12.3125 8.22430422,12.3125 L47.4787051,12.3125 C47.7557061,12.3125 48.0056505,12.1462622 48.1127446,11.8908011 L52.4097352,1.64080113 C52.4450223,1.55662776 52.4631958,1.46627065 52.4631958,1.375 C52.4631958,0.995304234 52.1553915,0.6875 51.7756958,0.6875 L12.5212949,0.6875 Z" id="Rectangle-8" stroke="#174D92" stroke-width="1.375"></path>
                        <path d="M24.207155,4.6875 C23.9138626,4.6875 23.6528654,4.87356238 23.5572306,5.15082472 L22.781149,7.40082472 C22.7562721,7.4729473 22.7435733,7.54870762 22.7435733,7.625 C22.7435733,8.00469577 23.0513776,8.3125 23.4310733,8.3125 L34.1052455,8.3125 C34.3425116,8.3125 34.563009,8.19015841 34.6885763,7.98884266 L36.0919756,5.73884266 C36.1600542,5.62969573 36.1961449,5.50363803 36.1961449,5.375 C36.1961449,4.99530423 35.8883406,4.6875 35.5086449,4.6875 L24.207155,4.6875 Z" id="Rectangle-8-Copy-2" stroke="#174D92" stroke-width="1.375"></path>
                    </g>
                </g>
            </g>
        </g>
    </g>
</svg>