<?xml version="1.0" encoding="UTF-8"?>
<svg width="39px" height="30px" viewBox="0 0 39 30" version="1.1" xmlns="http://www.w3.org/2000/svg" xmlns:xlink="http://www.w3.org/1999/xlink">
    <!-- Generator: Sketch 49.3 (51167) - http://www.bohemiancoding.com/sketch -->
    <title>email-icon</title>
    <desc>Created with Sketch.</desc>
    <defs></defs>
    <g id="Page-1-Copy" stroke="none" stroke-width="1" fill="none" fill-rule="evenodd">
        <g id="Habilis" transform="translate(-201.000000, -11822.000000)">
            <g id="Group-23" transform="translate(145.000000, 11540.000000)">
                <g id="email-icon" transform="translate(56.952381, 282.571429)">
                    <path d="M30.0021777,4.38095238 L2.80487805,4.38095238 C1.2521777,4.38095238 0,5.62297496 0,7.16308297 L0,25.644379 C0,27.184487 1.2521777,28.4761905 2.80487805,28.4761905 L30.0021777,28.4761905 C31.554878,28.4761905 32.8571429,27.2341679 32.8571429,25.644379 L32.8571429,7.16308297 C32.8070557,5.67265587 31.554878,4.38095238 30.0021777,4.38095238 Z" id="Path" fill="#DEEBFA"></path>
                    <g id="noun_221802_cc" transform="translate(4.380952, 0.000000)" fill="#174D92" fill-rule="nonzero">
                        <path d="M30.0021777,0 L2.80487805,0 C1.2521777,0 0,1.24202258 0,2.78213058 L0,21.2634266 C0,22.8035346 1.2521777,24.0952381 2.80487805,24.0952381 L30.0021777,24.0952381 C31.554878,24.0952381 32.8571429,22.8532155 32.8571429,21.2634266 L32.8571429,2.78213058 C32.8070557,1.29170349 31.554878,0 30.0021777,0 Z M20.5357143,11.1285223 L31.1541812,2.73244968 C31.1541812,2.78213058 31.1541812,2.78213058 31.1541812,2.83181149 L31.1541812,21.2634266 L20.5357143,11.1285223 Z M1.60278746,21.2634266 L1.60278746,2.78213058 C1.60278746,2.73244968 1.60278746,2.73244968 1.60278746,2.68276878 L12.2212544,11.0788414 L1.60278746,21.2634266 Z M2.90505226,1.63946981 L29.8519164,1.63946981 L16.3784843,12.320864 L2.90505226,1.63946981 Z M2.75479094,22.5054492 C2.75479094,22.5054492 2.70470383,22.5054492 2.70470383,22.5054492 L13.4734321,12.1718213 L15.8275261,14.0100147 C15.9777875,14.1093765 16.1781359,14.2087383 16.3283972,14.2087383 C16.4786585,14.2087383 16.679007,14.1590574 16.8292683,14.0100147 L19.1833624,12.1718213 L29.9520906,22.5054492 C29.9520906,22.5054492 29.9020035,22.5054492 29.9020035,22.5054492 L2.75479094,22.5054492 Z" id="Shape"></path>
                    </g>
                </g>
            </g>
        </g>
    </g>
</svg>