<?xml version="1.0" encoding="UTF-8"?>
<svg width="253px" height="105px" viewBox="0 0 253 105" version="1.1" xmlns="http://www.w3.org/2000/svg" xmlns:xlink="http://www.w3.org/1999/xlink">
    <!-- Generator: Sketch 49 (51002) - http://www.bohemiancoding.com/sketch -->
    <title>Expertise</title>
    <desc>Created with Sketch.</desc>
    <defs></defs>
    <g id="Page-1-Copy" stroke="none" stroke-width="1" fill="none" fill-rule="evenodd">
        <g id="Habilis" transform="translate(-593.000000, -6669.000000)">
            <g id="Expertise" transform="translate(592.000000, 6645.000000)">
                <g id="Group-33-Copy" fill="#414244">
                    <path d="M31.2,25.52 L8.56,25.52 L8.56,50.72 L29.44,50.72 L29.44,52.24 L8.56,52.24 L8.56,78.48 L31.2,78.48 L31.2,80 L6.96,80 L6.96,24 L31.2,24 L31.2,25.52 Z M61.68,80 L59.84,80 L48.88,60.32 L37.76,80 L36,80 L48,58.88 L36.48,38.4 L38.24,38.4 L48.88,57.52 L59.52,38.4 L61.2,38.4 L49.84,58.88 L61.68,80 Z M81.84,37.6 C88.08,37.6 93.12,42.96 93.12,50.4 L93.12,68 C93.12,75.36 87.92,80.8 81.28,80.8 C76.72,80.8 72.24,78.16 70.48,74 L70.48,94.4 L68.96,94.4 L68.96,38.4 L70.48,38.4 L70.48,45.76 C72.16,40.64 76.32,37.6 81.84,37.6 Z M91.6,68 L91.6,50.4 C91.6,43.68 87.2,39.04 81.52,39.04 C76,39.04 70.48,43.76 70.48,52 L70.48,68.8 C70.48,74.64 75.12,79.36 81.04,79.36 C86.96,79.36 91.6,74.72 91.6,68 Z M126.24,67.84 L127.76,67.84 C126.96,75.52 122.96,80.8 115.04,80.8 C107.52,80.8 103.04,75.52 103.04,67.84 L103.04,50.56 C103.04,42.88 107.52,37.6 115.04,37.6 C122.48,37.6 127.04,42.88 127.04,50.56 L127.04,60.08 L104.56,60.08 L104.56,67.84 C104.56,74.64 108.48,79.36 115.04,79.36 C122,79.36 125.44,74.64 126.24,67.84 Z M115.04,39.04 C108.48,39.04 104.56,43.76 104.56,50.56 L104.56,58.64 L125.52,58.64 L125.52,50.56 C125.52,43.76 121.52,39.04 115.04,39.04 Z M151.44,37.6 C153.44,37.6 155.04,37.84 155.76,38.08 L155.76,39.68 C154.24,39.28 152.88,39.04 151.12,39.04 C144.72,39.04 139.76,45.28 139.76,54.4 L139.76,79.76 L138.24,79.76 L138.24,38.4 L139.76,38.4 L139.76,46.24 C142,40.88 146.32,37.6 151.44,37.6 Z M175.36,78.72 L176.8,78.72 L176.8,80.16 L175.36,80.16 C168.48,80.16 165.04,76.96 165.04,69.92 L165.04,39.84 L159.28,39.84 L159.28,38.4 L165.04,38.4 L165.04,28.56 L166.56,28.56 L166.56,38.4 L176.32,38.4 L176.32,39.84 L166.56,39.84 L166.56,69.92 C166.56,76.16 169.68,78.72 175.36,78.72 Z M186.08,30.24 C184.88,30.24 184.08,29.44 184.08,28.24 C184.08,27.04 184.88,26.24 186.08,26.24 C187.28,26.24 188.08,27.04 188.08,28.24 C188.08,29.44 187.28,30.24 186.08,30.24 Z M185.28,80 L185.28,38.4 L186.8,38.4 L186.8,80 L185.28,80 Z M208.56,80.8 C201.2,80.8 196.64,76.88 196.24,69.2 L197.76,69.2 C198.16,76.24 202,79.36 208.56,79.36 C213.84,79.36 218.4,76.08 218.4,70.8 C218.4,58.08 196.72,60.96 196.72,47.44 C196.72,41.68 201.44,37.6 207.68,37.6 C214.4,37.6 218.72,41.52 219.04,47.92 L217.52,47.92 C217.2,42.16 213.6,39.04 207.68,39.04 C202.4,39.04 198.24,42.32 198.24,47.44 C198.24,59.68 219.92,56.88 219.92,70.8 C219.92,76.72 214.64,80.8 208.56,80.8 Z M251.68,67.84 L253.2,67.84 C252.4,75.52 248.4,80.8 240.48,80.8 C232.96,80.8 228.48,75.52 228.48,67.84 L228.48,50.56 C228.48,42.88 232.96,37.6 240.48,37.6 C247.92,37.6 252.48,42.88 252.48,50.56 L252.48,60.08 L230,60.08 L230,67.84 C230,74.64 233.92,79.36 240.48,79.36 C247.44,79.36 250.88,74.64 251.68,67.84 Z M240.48,39.04 C233.92,39.04 230,43.76 230,50.56 L230,58.64 L250.96,58.64 L250.96,50.56 C250.96,43.76 246.96,39.04 240.48,39.04 Z" id="Expertise"></path>
                </g>
                <path d="M10.425,115.125 L10.425,117.375 L6.875,117.375 L6.875,121.025 L4.625,121.025 L4.625,117.375 L1.075,117.375 L1.075,115.125 L4.625,115.125 L4.625,111.475 L6.875,111.475 L6.875,115.125 L10.425,115.125 Z M13.575,124 L13.575,122.325 C13.575,116.575 20.075,114.175 20.075,110.55 C20.075,109.45 19.4,108.5 18.075,108.5 C16.85,108.5 16.075,109.325 16.025,110.925 L13.7,110.925 C13.85,107.95 15.475,106.225 18.05,106.225 C20.95,106.225 22.475,108.275 22.475,110.475 C22.475,115.2 16.075,117.85 16.075,121.75 L22.6,121.75 L22.6,124 L13.575,124 Z M30.625,124.25 C27.8,124.25 26,122.375 26,119.35 L26,111.2 C26,108.15 27.8,106.25 30.625,106.25 C33.5,106.25 35.275,108.15 35.275,111.2 L35.275,119.35 C35.275,122.375 33.5,124.25 30.625,124.25 Z M30.625,121.975 C32.1,121.975 32.925,121.025 32.925,119.35 L32.925,111.2 C32.925,109.475 32.1,108.525 30.625,108.525 C29.175,108.525 28.35,109.475 28.35,111.2 L28.35,119.35 C28.35,121.025 29.175,121.975 30.625,121.975 Z M52.4250001,110.825 L54.9250001,110.825 L50.7000001,125.025 C50.0750001,127.175 49.1500001,128.75 47.1750001,128.75 L45.8750001,128.75 L45.8750001,126.4 L46.7000001,126.4 C47.7250001,126.4 48.0500001,125.675 48.3750001,124.6 L48.9500001,122.625 L44.7000001,110.825 L47.2500001,110.825 L49.9750001,119.175 L52.4250001,110.825 Z M64.3750001,119.875 L66.8000001,119.875 C66.5750001,122.675 64.8500001,124.275 62.0000001,124.275 C59.2500001,124.275 57.5250001,122.475 57.5250001,119.325 L57.5250001,115.4 C57.5250001,112.275 59.2500001,110.5 62.0250001,110.5 C64.8500001,110.5 66.6250001,112.275 66.6250001,115.4 L66.6250001,118.325 L59.9500001,118.325 L59.9500001,119.325 C59.9500001,121.125 60.7250001,121.95 62.0500001,121.95 C63.5250001,121.95 64.1500001,121.3 64.3750001,119.875 Z M62.0500001,112.775 C60.7250001,112.775 59.9500001,113.575 59.9500001,115.375 L59.9500001,116.5 L64.2250001,116.5 L64.2250001,115.375 C64.2250001,113.575 63.4250001,112.775 62.0500001,112.775 Z M74.7000001,110.5 C77.5250001,110.5 78.9750001,112.225 78.9750001,115.25 L78.9750001,124 L77.0000001,124 L76.8250001,122.775 C76.3000001,123.65 75.3500001,124.325 73.9000001,124.325 C71.4750001,124.325 69.8500001,122.725 69.8500001,120.25 C69.8500001,117.55 71.7250001,116.175 74.6250001,116.175 L76.5500001,116.175 L76.5500001,115.25 C76.5500001,113.7 75.9750001,112.825 74.6500001,112.825 C73.5750001,112.825 72.7750001,113.4 72.6500001,114.575 L70.2250001,114.575 C70.3500001,112.05 72.0500001,110.5 74.7000001,110.5 Z M76.5500001,120.075 L76.5500001,118.275 L74.6250001,118.275 C73.1500001,118.275 72.3000001,118.95 72.3000001,120.25 C72.3000001,121.45 73.0750001,122.175 74.4000001,122.175 C75.7250001,122.175 76.5500001,121.325 76.5500001,120.075 Z M88.6000002,110.525 C89.1500002,110.525 89.6000002,110.575 89.9750002,110.725 L89.9750002,113.125 C89.5000002,112.925 89.0000002,112.825 88.3500002,112.825 C86.7000002,112.825 85.6500002,113.9 85.6500002,115.875 L85.6500002,124 L83.2250002,124 L83.2250002,110.825 L84.9500002,110.825 L85.2250002,112.35 C85.9000002,111.2 87.0250002,110.525 88.6000002,110.525 Z M96.9750002,124.325 C93.9750002,124.325 92.2750002,122.375 92.2500002,119.95 L94.6500002,119.95 C94.6750002,121.15 95.4000002,122.075 96.9250002,122.075 C98.2000002,122.075 98.9250002,121.45 98.9250002,120.425 C98.9250002,117.775 92.4500002,118.675 92.4500002,114.175 C92.4500002,111.925 94.1250002,110.5 96.7000002,110.5 C99.5000002,110.5 100.975,112.25 101.075,114.7 L98.7000002,114.7 C98.6750002,113.45 98.0250002,112.7 96.7000002,112.7 C95.5500002,112.7 94.8500002,113.275 94.8500002,114.2 C94.8500002,116.7 101.35,115.725 101.35,120.45 C101.35,122.775 99.7000002,124.325 96.9750002,124.325 Z M115.9,124.3 C113.05,124.3 111.275,122.525 111.275,119.3 L111.275,115.5 C111.275,112.275 113.05,110.5 115.9,110.5 C118.775,110.5 120.55,112.275 120.55,115.5 L120.55,119.3 C120.55,122.525 118.775,124.3 115.9,124.3 Z M115.9,121.95 C117.275,121.95 118.1,121.15 118.1,119.3 L118.1,115.5 C118.1,113.65 117.275,112.85 115.9,112.85 C114.55,112.85 113.725,113.65 113.725,115.5 L113.725,119.3 C113.725,121.15 114.55,121.95 115.9,121.95 Z M129.55,107.75 C128.175,107.75 127.525,108.45 127.525,110.1 L127.525,110.825 L130.075,110.825 L130.075,113.025 L127.525,113.025 L127.525,124 L125.125,124 L125.125,113.025 L123.2,113.025 L123.2,110.825 L125.125,110.825 L125.125,110.1 C125.125,107.375 126.5,105.55 129.55,105.55 L130.325,105.55 L130.325,107.75 L129.55,107.75 Z M146.6,119.875 L149.025,119.875 C148.8,122.675 147.075,124.275 144.225,124.275 C141.475,124.275 139.75,122.475 139.75,119.325 L139.75,115.4 C139.75,112.275 141.475,110.5 144.25,110.5 C147.075,110.5 148.85,112.275 148.85,115.4 L148.85,118.325 L142.175,118.325 L142.175,119.325 C142.175,121.125 142.95,121.95 144.275,121.95 C145.75,121.95 146.375,121.3 146.6,119.875 Z M144.275,112.775 C142.95,112.775 142.175,113.575 142.175,115.375 L142.175,116.5 L146.45,116.5 L146.45,115.375 C146.45,113.575 145.65,112.775 144.275,112.775 Z M161.5,124 L158.75,124 L156.4,119.325 L154.025,124 L151.275,124 L154.925,117.4 L151.55,110.825 L154.225,110.825 L156.4,115.3 L158.55,110.825 L161.225,110.825 L157.9,117.4 L161.5,124 Z M169.175,110.525 C171.675,110.525 173.375,112.4 173.375,115.625 L173.375,119.25 C173.375,122.45 171.725,124.3 169.175,124.3 C168.225,124.3 167.3,123.925 166.65,123.25 L166.65,128.5 L164.275,128.5 L164.275,110.8 L166.025,110.8 L166.2,112.025 C166.85,111.175 168,110.525 169.175,110.525 Z M170.9,119.25 L170.9,115.625 C170.9,113.675 170.125,112.8 168.775,112.8 C167.525,112.8 166.65,113.725 166.65,115.6 L166.65,119.25 C166.65,120.975 167.45,122.025 168.775,122.025 C170.175,122.025 170.9,121.175 170.9,119.25 Z M183.85,119.875 L186.275,119.875 C186.05,122.675 184.325,124.275 181.475,124.275 C178.725,124.275 177,122.475 177,119.325 L177,115.4 C177,112.275 178.725,110.5 181.5,110.5 C184.325,110.5 186.1,112.275 186.1,115.4 L186.1,118.325 L179.425,118.325 L179.425,119.325 C179.425,121.125 180.2,121.95 181.525,121.95 C183,121.95 183.625,121.3 183.85,119.875 Z M181.525,112.775 C180.2,112.775 179.425,113.575 179.425,115.375 L179.425,116.5 L183.7,116.5 L183.7,115.375 C183.7,113.575 182.9,112.775 181.525,112.775 Z M195.375,110.525 C195.925,110.525 196.375,110.575 196.75,110.725 L196.75,113.125 C196.275,112.925 195.775,112.825 195.125,112.825 C193.475,112.825 192.425,113.9 192.425,115.875 L192.425,124 L190,124 L190,110.825 L191.725,110.825 L192,112.35 C192.675,111.2 193.8,110.525 195.375,110.525 Z M201.05,108.625 C200.15,108.625 199.525,107.975 199.525,107.1 C199.525,106.2 200.15,105.55 201.05,105.55 C201.95,105.55 202.6,106.2 202.6,107.1 C202.6,107.95 201.95,108.625 201.05,108.625 Z M199.85,124 L199.85,110.825 L202.275,110.825 L202.275,124 L199.85,124 Z M213.075,119.875 L215.5,119.875 C215.275,122.675 213.55,124.275 210.7,124.275 C207.95,124.275 206.225,122.475 206.225,119.325 L206.225,115.4 C206.225,112.275 207.95,110.5 210.725,110.5 C213.55,110.5 215.325,112.275 215.325,115.4 L215.325,118.325 L208.65,118.325 L208.65,119.325 C208.65,121.125 209.425,121.95 210.75,121.95 C212.225,121.95 212.85,121.3 213.075,119.875 Z M210.75,112.775 C209.425,112.775 208.65,113.575 208.65,115.375 L208.65,116.5 L212.925,116.5 L212.925,115.375 C212.925,113.575 212.125,112.775 210.75,112.775 Z M224.475,110.5 C226.75,110.5 228.175,112.125 228.175,115.725 L228.175,124 L225.75,124 L225.75,115.85 C225.75,113.7 225.175,112.8 223.9,112.8 C222.525,112.8 221.65,113.9 221.65,115.85 L221.65,124 L219.225,124 L219.225,110.825 L220.95,110.825 L221.2,112.3 C221.875,111.175 222.975,110.5 224.475,110.5 Z M236.450001,124.275 C233.700001,124.275 232.000001,122.525 232.000001,119.45 L232.000001,115.3 C232.000001,112.25 233.700001,110.5 236.450001,110.5 C239.300001,110.5 240.925001,112.25 241.025001,115.3 L238.575001,115.3 C238.525001,113.625 237.800001,112.825 236.475001,112.825 C235.200001,112.825 234.450001,113.625 234.450001,115.3 L234.450001,119.45 C234.450001,121.125 235.200001,121.95 236.475001,121.95 C237.825001,121.95 238.575001,121.125 238.650001,119.45 L241.075001,119.45 C241.000001,122.525 239.250001,124.275 236.450001,124.275 Z M251.125001,119.875 L253.550001,119.875 C253.325001,122.675 251.600001,124.275 248.750001,124.275 C246.000001,124.275 244.275001,122.475 244.275001,119.325 L244.275001,115.4 C244.275001,112.275 246.000001,110.5 248.775001,110.5 C251.600001,110.5 253.375001,112.275 253.375001,115.4 L253.375001,118.325 L246.700001,118.325 L246.700001,119.325 C246.700001,121.125 247.475001,121.95 248.800001,121.95 C250.275001,121.95 250.900001,121.3 251.125001,119.875 Z M248.800001,112.775 C247.475001,112.775 246.700001,113.575 246.700001,115.375 L246.700001,116.5 L250.975001,116.5 L250.975001,115.375 C250.975001,113.575 250.175001,112.775 248.800001,112.775 Z" id="+20-years-of-experie-copy" fill="#000000" opacity="0.331125453"></path>
            </g>
        </g>
    </g>
</svg>