<?xml version="1.0" encoding="UTF-8"?>
<svg width="49px" height="46px" viewBox="0 0 49 46" version="1.1" xmlns="http://www.w3.org/2000/svg" xmlns:xlink="http://www.w3.org/1999/xlink">
    <!-- Generator: Sketch 49 (51002) - http://www.bohemiancoding.com/sketch -->
    <title>flooring-icon</title>
    <desc>Created with Sketch.</desc>
    <defs></defs>
    <g id="Page-1-Copy" stroke="none" stroke-width="1" fill="none" fill-rule="evenodd">
        <g id="Habilis" transform="translate(-869.000000, -2721.000000)">
            <g id="Group-41" transform="translate(-66.000000, 2071.000000)">
                <g id="Group-37" transform="translate(837.000000, 162.000000)">
                    <g id="flooring-icon" transform="translate(98.000000, 488.000000)">
                        <g id="Group-8">
                            <g id="Group-8-Copy" transform="translate(0.000000, 3.365854)" fill="#DEEBFA">
                                <path d="M2.25,7.85365854 L12.5639535,7.85365854 C13.8065942,7.85365854 14.8139535,8.86101785 14.8139535,10.1036585 L14.8139535,19.0670732 C14.8139535,20.3097139 13.8065942,21.3170732 12.5639535,21.3170732 L2.25,21.3170732 C1.00735931,21.3170732 2.14404466e-15,20.3097139 8.8817842e-16,19.0670732 L0,10.1036585 C-1.52179594e-16,8.86101785 1.00735931,7.85365854 2.25,7.85365854 Z M18.2034884,14.5853659 L28.5174419,14.5853659 C29.7600825,14.5853659 30.7674419,15.5927252 30.7674419,16.8353659 L30.7674419,25.7987805 C30.7674419,27.0414212 29.7600825,28.0487805 28.5174419,28.0487805 L18.2034884,28.0487805 C16.9608477,28.0487805 15.9534884,27.0414212 15.9534884,25.7987805 L15.9534884,16.8353659 C15.9534884,15.5927252 16.9608477,14.5853659 18.2034884,14.5853659 Z M34.1569767,22.4390244 L44.4709302,22.4390244 C45.7135709,22.4390244 46.7209302,23.4463837 46.7209302,24.6890244 L46.7209302,33.652439 C46.7209302,34.8950797 45.7135709,35.902439 44.4709302,35.902439 L34.1569767,35.902439 C32.9143361,35.902439 31.9069767,34.8950797 31.9069767,33.652439 L31.9069767,24.6890244 C31.9069767,23.4463837 32.9143361,22.4390244 34.1569767,22.4390244 Z M2.25,22.4390244 L12.5639535,22.4390244 C13.8065942,22.4390244 14.8139535,23.4463837 14.8139535,24.6890244 L14.8139535,33.652439 C14.8139535,34.8950797 13.8065942,35.902439 12.5639535,35.902439 L2.25,35.902439 C1.00735931,35.902439 1.04035801e-15,34.8950797 8.8817842e-16,33.652439 L0,24.6890244 C-1.52179594e-16,23.4463837 1.00735931,22.4390244 2.25,22.4390244 Z M18.2034884,29.1707317 L28.5174419,29.1707317 C29.7600825,29.1707317 30.7674419,30.178091 30.7674419,31.4207317 L30.7674419,40.3841463 C30.7674419,41.626787 29.7600825,42.6341463 28.5174419,42.6341463 L18.2034884,42.6341463 C16.9608477,42.6341463 15.9534884,41.626787 15.9534884,40.3841463 L15.9534884,31.4207317 C15.9534884,30.178091 16.9608477,29.1707317 18.2034884,29.1707317 Z M18.2034884,0 L28.5174419,0 C29.7600825,-1.33195603e-15 30.7674419,1.00735931 30.7674419,2.25 L30.7674419,11.2134146 C30.7674419,12.4560553 29.7600825,13.4634146 28.5174419,13.4634146 L18.2034884,13.4634146 C16.9608477,13.4634146 15.9534884,12.4560553 15.9534884,11.2134146 L15.9534884,2.25 C15.9534884,1.00735931 16.9608477,2.28269391e-16 18.2034884,0 Z M34.1569767,7.85365854 L44.4709302,7.85365854 C45.7135709,7.85365854 46.7209302,8.86101785 46.7209302,10.1036585 L46.7209302,19.0670732 C46.7209302,20.3097139 45.7135709,21.3170732 44.4709302,21.3170732 L34.1569767,21.3170732 C32.9143361,21.3170732 31.9069767,20.3097139 31.9069767,19.0670732 L31.9069767,10.1036585 C31.9069767,8.86101785 32.9143361,7.85365854 34.1569767,7.85365854 Z" id="Combined-Shape"></path>
                            </g>
                            <rect id="Rectangle-10" stroke="#174D92" stroke-width="1.375" x="2.96656977" y="8.54115854" width="13.4389535" height="12.0884146" rx="2.25"></rect>
                            <rect id="Rectangle-10-Copy" stroke="#174D92" stroke-width="1.375" x="18.9200581" y="15.2728659" width="13.4389535" height="12.0884146" rx="2.25"></rect>
                            <rect id="Rectangle-10-Copy-2" stroke="#174D92" stroke-width="1.375" x="34.8735465" y="23.1265244" width="13.4389535" height="12.0884146" rx="2.25"></rect>
                            <rect id="Rectangle-10-Copy-10" stroke="#174D92" stroke-width="1.375" x="2.96656977" y="23.1265244" width="13.4389535" height="12.0884146" rx="2.25"></rect>
                            <rect id="Rectangle-10-Copy-9" stroke="#174D92" stroke-width="1.375" x="18.9200581" y="29.8582317" width="13.4389535" height="12.0884146" rx="2.25"></rect>
                            <rect id="Rectangle-10-Copy-7" stroke="#174D92" stroke-width="1.375" x="18.9200581" y="0.6875" width="13.4389535" height="12.0884146" rx="2.25"></rect>
                            <rect id="Rectangle-10-Copy-6" stroke="#174D92" stroke-width="1.375" x="34.8735465" y="8.54115854" width="13.4389535" height="12.0884146" rx="2.25"></rect>
                        </g>
                    </g>
                </g>
            </g>
        </g>
    </g>
</svg>