<?xml version="1.0" encoding="UTF-8"?>
<svg width="169px" height="48px" viewBox="0 0 169 48" version="1.1" xmlns="http://www.w3.org/2000/svg" xmlns:xlink="http://www.w3.org/1999/xlink">
    <!-- Generator: Sketch 49 (51002) - http://www.bohemiancoding.com/sketch -->
    <title>logo</title>
    <desc>Created with Sketch.</desc>
    <defs></defs>
    <g id="Page-1-Copy" stroke="none" stroke-width="1" fill="none" fill-rule="evenodd">
        <g id="Habilis-Copy-2" transform="translate(-156.000000, -447.000000)">
            <g id="logo" transform="translate(156.000000, 447.000000)">
                <g id="Group-3">
                    <g id="Group-2" transform="translate(45.265049, 0.081531)" fill="#000000">
                        <g id="Group" transform="translate(0.000000, -0.000000)">
                            <path d="M12.2301605,0.421442982 L12.2301605,13.2179844 L0.766781221,13.2179844 L0.766781221,0.421442982 L0,0.421442982 L0,27.2405419 L0.766781221,27.2405419 L0.766781221,13.9459314 L12.2301605,13.9459314 L12.2301605,27.2405419 L12.9969417,27.2405419 L12.9969417,0.421442982 L12.2301605,0.421442982 Z M36.2304127,27.2405419 L34.1601034,19.4630032 L24.5753381,19.4630032 L22.5050288,27.2405419 L21.6999086,27.2405419 L28.907652,0.421442982 L29.8277895,0.421442982 L37.035533,27.2405419 L36.2304127,27.2405419 Z M24.7670335,18.7350562 L33.9684081,18.7350562 L31.0929785,7.93079067 L29.3677208,1.41758094 C28.7926349,3.60142185 28.2175489,5.74694976 27.642463,7.93079067 L24.7670335,18.7350562 Z M53.4446511,13.2946104 C57.4319135,14.0225574 58.8121197,16.7810933 58.8121197,19.9993852 C58.8121197,24.596945 55.9750292,27.2405419 51.3360028,27.2405419 L45.7384999,27.2405419 L45.7384999,0.421442982 L51.1059684,0.421442982 C55.2082479,0.421442982 57.7002869,2.87347488 57.7002869,7.1262177 C57.7002869,9.88475359 56.5884541,12.4900375 53.4446511,13.2946104 Z M51.1059684,1.14938995 L46.5052811,1.14938995 L46.5052811,12.9497935 L51.4126809,12.9497935 C55.2849261,12.9497935 56.9335057,10.2295706 56.9335057,7.1262177 C56.9335057,3.25660486 54.7865183,1.14938995 51.1059684,1.14938995 Z M51.3360028,26.5125949 C55.5532995,26.5125949 58.0453385,24.213815 58.0453385,19.9993852 C58.0453385,16.6661543 56.0133682,13.6777404 51.4126809,13.6777404 L46.5052811,13.6777404 L46.5052811,26.5125949 L51.3360028,26.5125949 Z M68.1285115,0.421442982 L68.1285115,27.2405419 L68.8952927,27.2405419 L68.8952927,0.421442982 L68.1285115,0.421442982 Z M81.1254532,26.5125949 L81.1254532,0.421442982 L80.358672,0.421442982 L80.358672,27.2405419 L91.0936091,27.2405419 L91.0936091,26.5125949 L81.1254532,26.5125949 Z M99.796576,0.421442982 L99.796576,27.2405419 L100.563357,27.2405419 L100.563357,0.421442982 L99.796576,0.421442982 Z M116.742441,27.6619848 C120.614686,27.6619848 123.068386,24.980075 123.068386,21.4552791 C123.068386,13.6011144 111.336633,13.1030455 111.336633,6.01514075 C111.336633,2.87347488 113.636977,0.72794697 116.742441,0.72794697 C119.809566,0.72794697 121.726519,2.75853589 122.10991,6.35995774 L122.876691,6.35995774 C122.569978,2.4520319 120.192956,0 116.704102,0 C113.176908,0 110.569852,2.4520319 110.569852,6.01514075 C110.569852,13.6394274 122.301605,14.0991834 122.301605,21.4552791 C122.301605,24.558632 120.231296,26.9340379 116.78078,26.9340379 C113.445282,26.9340379 111.566668,24.750197 111.144938,21.2637141 L110.378157,21.2637141 C110.684869,24.980075 112.870196,27.6619848 116.742441,27.6619848 Z" id="HABILIS"></path>
                        </g>
                    </g>
                    <g id="habilis-logo" transform="translate(0.000000, 10.000000)">
                        <path d="M9.10964945,1.26104498 C4.78096255,1.26104498 1.2598099,4.77395834 1.2598099,9.09381898 L1.2598099,27.112467 L23.6454079,27.112467 C27.9740948,27.112467 31.4952474,23.5995536 31.4952474,19.279693 L31.4952474,1.26104498 L9.10964945,1.26104498 Z" id="Path"></path>
                        <path d="M23.2738781,27.0120216 C27.7523387,27.0120216 31.3942674,23.3820705 31.3942674,18.9183795 L31.3942674,0.730967854 L8.85127424,0.730967854 C4.37281364,0.730967854 0.730884943,4.36091904 0.730884943,8.82460996 L0.730884943,27.0120216 L23.2738781,27.0120216 Z M32.1251523,18.9183795 C32.1251523,23.7863315 28.1554388,27.7429895 23.2738781,27.7429895 L0,27.7429895 L4.05722646e-17,8.82460996 C4.05722646e-17,3.95665799 3.96971352,0 8.85127424,0 L32.1251523,0 L32.1251523,18.9183795 Z" id="Path" fill="#000000" fill-rule="nonzero"></path>
                        <polygon id="Combined-Shape" fill="#000000" fill-rule="nonzero" points="7.98526354 13.8029557 7.98526354 27.7429895 7.28813467 27.7429895 7.28813467 13.8029557 0.629904948 13.8029557 0.629904948 13.1031843 24.0934519 13.1031843 24.0934519 0.630522488 24.7927939 0.630522488 24.7927939 13.1031843 32.1251523 13.1031843 32.1251523 13.8029557 9.39484122 13.8029557"></polygon>
                    </g>
                </g>
                <path d="M48.270912,47.8589971 C46.5168161,47.8589971 45.432466,46.6673317 45.3527344,44.9120407 L46.070319,44.9120407 C46.165997,46.3452599 46.9633133,47.1504393 48.2549656,47.1504393 C49.642296,47.1504393 50.3917733,46.2486384 50.3917733,44.9925586 C50.3917733,42.1905344 45.480305,42.1100165 45.480305,38.8570919 C45.480305,37.3272511 46.6124941,36.2 48.223073,36.2 C49.8655445,36.2 50.918002,37.3594583 51.01368,39.0825421 L50.280149,39.0825421 C50.184471,37.6332193 49.4031011,36.9085578 48.2549656,36.9085578 C47.0111522,36.9085578 46.213836,37.68153 46.213836,38.8570919 C46.213836,41.6108053 51.1253042,41.6430125 51.1253042,44.9925586 C51.1253042,46.5062958 50.1047394,47.8589971 48.270912,47.8589971 Z M62.0644837,36.393243 L62.0644837,37.0856973 L59.5449643,37.0856973 L59.5449643,47.6657541 L58.8273797,47.6657541 L58.8273797,37.0856973 L56.3397529,37.0856973 L56.3397529,36.393243 L62.0644837,36.393243 Z M70.6117144,47.8589971 C68.6981553,47.8589971 67.5181273,46.5546066 67.5181273,44.3323115 L67.5181273,39.7427892 C67.5181273,37.488287 68.6981553,36.2 70.6117144,36.2 C72.5412198,36.2 73.7212479,37.488287 73.7212479,39.7427892 L73.7212479,44.3323115 C73.7212479,46.5546066 72.5412198,47.8589971 70.6117144,47.8589971 Z M70.6117144,47.1504393 C72.1266153,47.1504393 72.9877169,46.1681205 72.9877169,44.3323115 L72.9877169,39.7427892 C72.9877169,37.8908767 72.1266153,36.9085578 70.6117144,36.9085578 C69.1127598,36.9085578 68.2516582,37.8908767 68.2516582,39.7427892 L68.2516582,44.3323115 C68.2516582,46.1681205 69.1127598,47.1504393 70.6117144,47.1504393 Z M85.4099047,36.393243 L86.1434357,36.393243 L86.1434357,47.6657541 L85.3939584,47.6657541 L81.8060351,39.9360322 C81.5349476,39.3240959 81.1043968,38.3256735 80.9130409,37.8264623 L80.8811483,37.8425659 C80.9130409,38.5189166 80.9289872,39.4690282 80.9289872,40.177586 L80.9289872,47.6657541 L80.2114026,47.6657541 L80.2114026,36.393243 L80.9608799,36.393243 L84.5169105,44.0746541 C84.8198907,44.7187976 85.2344951,45.6850129 85.4577437,46.2325348 L85.4896363,46.2164312 C85.4577437,45.5883913 85.4099047,44.5738653 85.4099047,43.8492039 L85.4099047,36.393243 Z M93.6701015,46.9894034 L98.1191264,46.9894034 L98.1191264,47.6657541 L92.9525169,47.6657541 L92.9525169,36.393243 L98.0075021,36.393243 L98.0075021,37.0695937 L93.6701015,37.0695937 L93.6701015,41.5947017 L97.7045219,41.5947017 L97.7045219,42.2710524 L93.6701015,42.2710524 L93.6701015,46.9894034 Z M121.113728,36.393243 L121.879152,36.393243 L119.439364,47.6657541 L118.626101,47.6657541 L117.1112,40.7090044 C116.919845,39.8716179 116.712542,38.502813 116.600918,37.6654264 L116.569025,37.6654264 C116.457401,38.502813 116.250099,39.8716179 116.058743,40.7090044 L114.543842,47.6657541 L113.730579,47.6657541 L111.290792,36.393243 L112.056215,36.393243 L113.603009,44.0263434 C113.762472,44.7993156 114.017613,46.0392918 114.113291,46.6029173 L114.145184,46.6029173 L114.671413,43.9297218 L116.186314,36.5703825 L116.98363,36.5703825 L118.482584,43.8331003 C118.67394,44.8476263 118.897189,46.0070846 119.02476,46.6029173 L119.056652,46.6029173 C119.168276,46.0070846 119.423418,44.7510048 119.582881,43.9458254 L121.113728,36.393243 Z M130.39449,47.8589971 C128.480931,47.8589971 127.300903,46.5546066 127.300903,44.3323115 L127.300903,39.7427892 C127.300903,37.488287 128.480931,36.2 130.39449,36.2 C132.323995,36.2 133.504023,37.488287 133.504023,39.7427892 L133.504023,44.3323115 C133.504023,46.5546066 132.323995,47.8589971 130.39449,47.8589971 Z M130.39449,47.1504393 C131.909391,47.1504393 132.770492,46.1681205 132.770492,44.3323115 L132.770492,39.7427892 C132.770492,37.8908767 131.909391,36.9085578 130.39449,36.9085578 C128.895535,36.9085578 128.034434,37.8908767 128.034434,39.7427892 L128.034434,44.3323115 C128.034434,46.1681205 128.895535,47.1504393 130.39449,47.1504393 Z M144.873754,47.6657541 L142.194771,43.0762317 L140.711763,43.0762317 L140.711763,47.6657541 L139.994178,47.6657541 L139.994178,36.393243 L142.338288,36.393243 C144.395364,36.393243 145.49566,37.5527013 145.49566,39.6461677 C145.49566,41.6108053 144.554827,42.8346779 142.976141,43.0440246 L145.702963,47.6657541 L144.873754,47.6657541 Z M140.711763,37.0856973 L140.711763,42.3998811 L142.497751,42.3998811 C143.93292,42.3998811 144.762129,41.4497694 144.762129,39.6783748 C144.762129,37.9391874 143.93292,37.0856973 142.338288,37.0856973 L140.711763,37.0856973 Z M157.024854,47.6657541 L153.405038,41.9167735 L152.464205,43.1728533 L152.464205,47.6657541 L151.74662,47.6657541 L151.74662,36.393243 L152.464205,36.393243 L152.464205,42.0456021 L153.165843,41.0471797 L156.56241,36.393243 L157.455405,36.393243 L153.867481,41.2887336 L157.885955,47.6657541 L157.024854,47.6657541 Z M165.651816,47.8589971 C163.89772,47.8589971 162.81337,46.6673317 162.733639,44.9120407 L163.451223,44.9120407 C163.546901,46.3452599 164.344217,47.1504393 165.63587,47.1504393 C167.0232,47.1504393 167.772677,46.2486384 167.772677,44.9925586 C167.772677,42.1905344 162.861209,42.1100165 162.861209,38.8570919 C162.861209,37.3272511 163.993398,36.2 165.603977,36.2 C167.246449,36.2 168.298906,37.3594583 168.394584,39.0825421 L167.661053,39.0825421 C167.565375,37.6332193 166.784005,36.9085578 165.63587,36.9085578 C164.392056,36.9085578 163.59474,37.68153 163.59474,38.8570919 C163.59474,41.6108053 168.506208,41.6430125 168.506208,44.9925586 C168.506208,46.5062958 167.485644,47.8589971 165.651816,47.8589971 Z" id="STONE-WORKS" fill="#000000"></path>
            </g>
        </g>
    </g>
</svg>