<?xml version="1.0" encoding="UTF-8"?>
<svg width="37px" height="36px" viewBox="0 0 37 36" version="1.1" xmlns="http://www.w3.org/2000/svg" xmlns:xlink="http://www.w3.org/1999/xlink">
    <!-- Generator: Sketch 49.3 (51167) - http://www.bohemiancoding.com/sketch -->
    <title>name-icon</title>
    <desc>Created with Sketch.</desc>
    <defs></defs>
    <g id="Page-1-Copy" stroke="none" stroke-width="1" fill="none" fill-rule="evenodd">
        <g id="Habilis" transform="translate(-199.000000, -11704.000000)">
            <g id="Group-23" transform="translate(145.000000, 11540.000000)">
                <g id="Group-17" transform="translate(54.761905, 131.428571)">
                    <g id="name-icon" transform="translate(0.000000, 32.857143)">
                        <g id="Group-11">
                            <path d="M19.7099048,0 C10.6522857,0 3.28571429,7.36766667 3.28571429,16.422 C3.28571429,19.6759524 4.23966667,22.8291429 6.049,25.5365714 C9.11019048,30.1124762 14.2161905,32.844 19.7099048,32.844 C25.203619,32.844 30.3118095,30.1124762 33.3708095,25.534381 C35.1757619,22.834619 36.1308095,19.6814286 36.1308095,16.422 C36.1297143,7.36766667 28.7653333,0 19.7099048,0 L19.7099048,0 Z M19.7099048,1.17628571 C28.1147619,1.17628571 34.9512381,8.01495238 34.9512381,16.422 C34.9512381,19.1754286 34.219619,21.8445238 32.825381,24.1894286 C32.7739048,24.1291905 32.706,24.0886667 32.6567143,24.030619 C32.1090952,23.4129048 31.514381,22.8455714 30.8539524,22.3406667 C30.751,22.2618095 30.636,22.1884286 30.5264762,22.1139524 C29.8167619,21.6046667 29.0632381,21.1402857 28.2308571,20.7624286 C27.9526667,20.6320952 27.6208095,20.7427143 27.4740476,21.0110476 C25.8990952,23.823619 22.926619,25.571619 19.711,25.571619 C16.4975714,25.571619 13.5229048,23.823619 11.9435714,21.0110476 C11.8756667,20.8894762 11.7661429,20.8160952 11.6467619,20.7668095 C11.6128095,20.7536667 11.5843333,20.7492857 11.550381,20.741619 C11.5076667,20.7328571 11.4715238,20.7098571 11.431,20.7098571 C11.3477619,20.7098571 11.2645238,20.727381 11.1867619,20.7635238 C10.3565714,21.1424762 9.60195238,21.6046667 8.89333333,22.1128571 C8.78161905,22.1895238 8.66661905,22.2629048 8.56147619,22.3439524 C7.89995238,22.8510476 7.30195238,23.4194762 6.75652381,24.0404762 C6.70942857,24.0963333 6.64480952,24.1346667 6.59661905,24.1927143 C5.20019048,21.8423333 4.46638095,19.1721429 4.46638095,16.4230952 C4.46419048,8.01604762 11.3050476,1.17628571 19.7099048,1.17628571 L19.7099048,1.17628571 Z M19.7099048,31.6655238 C14.766,31.6655238 10.1605238,29.2779048 7.29428571,25.2627619 C7.61738095,24.8564286 7.981,24.490619 8.35338095,24.1335714 C8.56038095,23.9364286 8.73890476,23.7075238 8.9612381,23.5235238 C9.64138095,22.9671429 10.3817619,22.475381 11.1988095,22.0624762 C13.0431905,24.9670476 16.2555238,26.749 19.7099048,26.749 C23.1664762,26.749 26.3777143,24.9670476 28.2177143,22.0624762 C29.0347619,22.475381 29.7795238,22.9671429 30.4574762,23.5235238 C30.6754286,23.7031429 30.8484762,23.9276667 31.054381,24.122619 C31.4311429,24.4818571 31.7991429,24.8498571 32.126619,25.2605714 C29.2592857,29.279 24.656,31.6655238 19.7099048,31.6655238 L19.7099048,31.6655238 Z M14.0310952,10.3171429 C14.0310952,7.18804762 16.578619,4.63942857 19.711,4.63942857 C22.8400952,4.63942857 25.3865238,7.18695238 25.3865238,10.3171429 L25.3865238,16.5851905 C25.3865238,19.7164762 22.8411905,22.2650952 19.711,22.2650952 C16.5797143,22.2650952 14.0310952,19.7175714 14.0310952,16.5851905 L14.0310952,10.3171429 L14.0310952,10.3171429 Z M19.7099048,23.4424762 C23.4895714,23.4424762 26.5639048,20.3659524 26.5639048,16.5840952 L26.5639048,10.3160476 C26.5639048,6.53419048 23.4895714,3.45985714 19.7099048,3.45985714 C15.9280476,3.45985714 12.8515238,6.53419048 12.8515238,10.3160476 L12.8515238,16.5840952 C12.8515238,20.3670476 15.9280476,23.4424762 19.7099048,23.4424762 L19.7099048,23.4424762 Z" id="User-round-2" fill="#174D92"></path>
                            <path d="M16.4241905,2.19047619 C25.479619,2.19047619 32.844,9.55814286 32.8450952,18.6124762 C32.8450952,21.8719048 31.8900476,25.0250952 30.0850952,27.7248571 C27.0260952,32.3029524 21.9179048,35.0344762 16.4241905,35.0344762 C10.9304762,35.0344762 5.82447619,32.3029524 2.76328571,27.7270476 C0.953952381,25.019619 0,21.8664286 0,18.6124762 C0,9.55814286 7.36657143,2.19047619 16.4241905,2.19047619 Z M16.4241905,3.3667619 C8.01933333,3.3667619 1.17847619,10.2065238 1.18066667,18.6135714 C1.18066667,21.362619 1.91447619,24.0328095 3.31090476,26.3831905 C3.35909524,26.3251429 3.42371429,26.2868095 3.47080952,26.2309524 C4.0162381,25.6099524 4.6142381,25.0415238 5.2757619,24.5344286 C5.38090476,24.453381 5.49590476,24.38 5.60761905,24.3033333 C6.3162381,23.7951429 7.07085714,23.3329524 7.90104762,22.954 C7.97880952,22.9178571 8.06204762,22.9003333 8.14528571,22.9003333 C8.18580952,22.9003333 8.22195238,22.9233333 8.26466667,22.9320952 C8.29861905,22.9397619 8.32709524,22.9441429 8.36104762,22.9572857 C8.48042857,23.0065714 8.58995238,23.0799524 8.65785714,23.2015238 C10.2371905,26.0140952 13.2118571,27.7620952 16.4252857,27.7620952 C19.6409048,27.7620952 22.613381,26.0140952 24.1883333,23.2015238 C24.3350952,22.9331905 24.6669524,22.8225714 24.9451429,22.9529048 C25.7775238,23.3307619 26.5310476,23.7951429 27.2407619,24.3044286 C27.3502857,24.3789048 27.4652857,24.4522857 27.5682381,24.5311429 C28.2286667,25.0360476 28.823381,25.603381 29.371,26.2210952 C29.4202857,26.2791429 29.4881905,26.3196667 29.5396667,26.3799048 C30.9339048,24.035 31.6655238,21.3659048 31.6655238,18.6124762 C31.6655238,10.2054286 24.8290476,3.3667619 16.4241905,3.3667619 Z M16.4241905,25.6329524 C12.6423333,25.6329524 9.56580952,22.5575238 9.56580952,18.7745714 L9.56580952,12.5065238 C9.56580952,8.72466667 12.6423333,5.65033333 16.4241905,5.65033333 C20.2038571,5.65033333 23.2781905,8.72466667 23.2781905,12.5065238 L23.2781905,18.7745714 C23.2781905,22.5564286 20.2038571,25.6329524 16.4241905,25.6329524 Z" id="User-round-2-Copy" fill-opacity="0.0991281703" fill="#BD10E0"></path>
                        </g>
                    </g>
                </g>
            </g>
        </g>
    </g>
</svg>