<?xml version="1.0" encoding="UTF-8"?>
<svg width="36px" height="38px" viewBox="0 0 36 38" version="1.1" xmlns="http://www.w3.org/2000/svg" xmlns:xlink="http://www.w3.org/1999/xlink">
    <!-- Generator: Sketch 49.3 (51167) - http://www.bohemiancoding.com/sketch -->
    <title>project-icon</title>
    <desc>Created with Sketch.</desc>
    <defs></defs>
    <g id="Page-1-Copy" stroke="none" stroke-width="1" fill="none" fill-rule="evenodd">
        <g id="Habilis" transform="translate(-206.000000, -12040.000000)">
            <g id="Group-23" transform="translate(145.000000, 11540.000000)">
                <g id="Group-19" transform="translate(61.333333, 468.761905)">
                    <g id="project-icon" transform="translate(0.000000, 31.761905)">
                        <path d="M35.1112581,15.614687 C34.1715439,13.1128387 32.7842142,10.8523484 30.9840219,8.89390044 C29.1949505,6.94924436 27.0527911,5.37283166 24.6145384,4.21017558 C24.3406867,4.08053184 24.0112307,4.12604507 23.7860329,4.33430256 L8.12505485,18.5247752 L6.31652188,20.1632514 C6.21921419,20.2418652 6.13441749,20.3439251 6.08298342,20.4708105 C6.07464276,20.4901191 6.0663021,20.5135653 6.05796144,20.5356324 L1.84731858,31.3912267 L0.0499064962,36.02668 C-0.0529616357,36.290105 0.00681308957,36.5838722 0.195868035,36.7948881 C0.340439463,36.9507364 0.540615287,37.0348669 0.746351551,37.0348669 C0.814466936,37.0348669 0.88536254,37.0265918 0.952087815,37.005904 L5.76881858,35.6515407 L17.095434,32.4628564 C17.1663296,32.4435477 17.2372252,32.4118264 17.3011702,32.3718299 C17.335923,32.3470045 17.3720658,32.3207999 17.4040384,32.2932161 L19.2528845,30.6175019 L34.9110823,16.4270292 C35.1404505,16.2187717 35.2169065,15.8974207 35.1112581,15.614687 L35.1112581,15.614687 Z" id="Path" fill="#DEEBFA" opacity="0.579993207"></path>
                        <path d="M35.1112581,11.4771209 C34.1715439,8.97527258 32.7842142,6.71478228 30.9840219,4.75633431 C29.1949505,2.81167822 27.0527911,1.23526552 24.6145384,0.072609439 C24.3406867,-0.0570342999 24.0112307,-0.0115210724 23.7860329,0.196736423 L8.12505485,14.3872091 L6.31652188,16.0256853 C6.21921419,16.104299 6.13441749,16.206359 6.08298342,16.3332444 C6.07464276,16.352553 6.0663021,16.3759992 6.05796144,16.3980662 L1.84731858,27.2536606 L0.0499064962,31.8891138 C-0.0529616357,32.1525389 0.00681308957,32.4463061 0.195868035,32.657322 C0.340439463,32.8131703 0.540615287,32.8973008 0.746351551,32.8973008 C0.814466936,32.8973008 0.88536254,32.8890257 0.952087815,32.8683378 L5.76881858,31.5139745 L17.095434,28.3252902 C17.1663296,28.3059816 17.2372252,28.2742602 17.3011702,28.2342638 C17.335923,28.2094384 17.3720658,28.1832338 17.4040384,28.15565 L19.2528845,26.4799357 L34.9110823,12.2894631 C35.1404505,12.0812056 35.2169065,11.7598546 35.1112581,11.4771209 L35.1112581,11.4771209 Z M2.9455054,28.5528564 C2.9746977,28.572165 3.01084056,28.5818193 3.04003287,28.5983696 C3.35975814,28.7983519 3.65863177,29.0190221 3.90607133,29.2907223 C4.15351089,29.5596641 4.34812628,29.87274 4.51910979,30.2065036 C4.53857133,30.2354666 4.54691199,30.2740839 4.55942298,30.3058052 L1.98215924,31.0326377 L2.9455054,28.5528564 L2.9455054,28.5528564 Z M16.526879,26.9392056 L6.0384999,29.8920486 C6.0093076,29.8272267 5.95648342,29.7789551 5.92451089,29.7168916 C5.68263177,29.1941791 5.3920988,28.7045671 5.0125988,28.2894313 C4.63031858,27.8742955 4.16324166,27.5460486 3.66002188,27.2577982 C3.59746694,27.2233184 3.55993397,27.1667717 3.49737902,27.1336712 L7.41192847,17.0435265 L8.58518122,15.9843096 L9.53323617,17.0131844 L17.6945713,25.8813678 L16.526879,26.9392056 L16.526879,26.9392056 Z M18.7983186,24.8786976 L16.4281812,22.3037523 L28.8766153,11.0275054 C29.0364779,10.8799322 29.1184944,10.6799498 29.1184944,10.4758299 C29.1184944,10.3006729 29.0559395,10.1199992 28.9224889,9.97794277 C28.645857,9.67590044 28.1704395,9.65797099 27.8660054,9.93242954 L15.4175713,21.2086765 L14.9310329,20.6776888 L13.0655054,18.6461438 L25.508379,7.36989692 C25.6710219,7.22232372 25.7530384,7.02234136 25.7530384,6.81822143 C25.7530384,6.64306447 25.6877032,6.46239074 25.5570329,6.32033431 C25.2776208,6.01829198 24.8022032,6.00036253 24.4977691,6.27482108 L12.0521153,17.5538264 L9.68753836,14.9816394 L24.4143625,1.63385106 C26.4911867,2.69030962 28.328912,4.07501508 29.8774944,5.76314207 C31.4358076,7.45540662 32.6577142,9.39454595 33.5265329,11.5336676 L18.7983186,24.8786976 L18.7983186,24.8786976 Z" id="Pencil-2" fill="#174D92"></path>
                    </g>
                </g>
            </g>
        </g>
    </g>
</svg>