<?xml version="1.0" encoding="UTF-8"?>
<svg width="340px" height="107px" viewBox="0 0 340 107" version="1.1" xmlns="http://www.w3.org/2000/svg" xmlns:xlink="http://www.w3.org/1999/xlink">
    <!-- Generator: Sketch 49 (51002) - http://www.bohemiancoding.com/sketch -->
    <title>testimonial</title>
    <desc>Created with Sketch.</desc>
    <defs></defs>
    <g id="Page-1-Copy" stroke="none" stroke-width="1" fill="none" fill-rule="evenodd">
        <g id="Habilis" transform="translate(-550.000000, -7611.000000)">
            <g id="testimonial" transform="translate(548.000000, 7589.000000)">
                <g id="Group-4-Copy" fill="#414244">
                    <path d="M29.36,24 L29.36,25.52 L16.32,25.52 L16.32,80 L14.72,80 L14.72,25.52 L2.08,25.52 L2.08,24 L29.36,24 Z M55.36,67.84 L56.88,67.84 C56.08,75.52 52.08,80.8 44.16,80.8 C36.64,80.8 32.16,75.52 32.16,67.84 L32.16,50.56 C32.16,42.88 36.64,37.6 44.16,37.6 C51.6,37.6 56.16,42.88 56.16,50.56 L56.16,60.08 L33.68,60.08 L33.68,67.84 C33.68,74.64 37.6,79.36 44.16,79.36 C51.12,79.36 54.56,74.64 55.36,67.84 Z M44.16,39.04 C37.6,39.04 33.68,43.76 33.68,50.56 L33.68,58.64 L54.64,58.64 L54.64,50.56 C54.64,43.76 50.64,39.04 44.16,39.04 Z M77.12,80.8 C69.76,80.8 65.2,76.88 64.8,69.2 L66.32,69.2 C66.72,76.24 70.56,79.36 77.12,79.36 C82.4,79.36 86.96,76.08 86.96,70.8 C86.96,58.08 65.28,60.96 65.28,47.44 C65.28,41.68 70,37.6 76.24,37.6 C82.96,37.6 87.28,41.52 87.6,47.92 L86.08,47.92 C85.76,42.16 82.16,39.04 76.24,39.04 C70.96,39.04 66.8,42.32 66.8,47.44 C66.8,59.68 88.48,56.88 88.48,70.8 C88.48,76.72 83.2,80.8 77.12,80.8 Z M110.16,78.72 L111.6,78.72 L111.6,80.16 L110.16,80.16 C103.28,80.16 99.84,76.96 99.84,69.92 L99.84,39.84 L94.08,39.84 L94.08,38.4 L99.84,38.4 L99.84,28.56 L101.36,28.56 L101.36,38.4 L111.12,38.4 L111.12,39.84 L101.36,39.84 L101.36,69.92 C101.36,76.16 104.48,78.72 110.16,78.72 Z M120.88,30.24 C119.68,30.24 118.88,29.44 118.88,28.24 C118.88,27.04 119.68,26.24 120.88,26.24 C122.08,26.24 122.88,27.04 122.88,28.24 C122.88,29.44 122.08,30.24 120.88,30.24 Z M120.08,80 L120.08,38.4 L121.6,38.4 L121.6,80 L120.08,80 Z M167.44,37.6 C173.84,37.6 177.36,42.88 177.36,52.8 L177.36,80 L175.84,80 L175.84,52.8 C175.84,43.76 172.88,39.04 167.28,39.04 C160.88,39.04 156.24,45.28 156.24,54.4 L156.24,80 L154.72,80 L154.72,52.8 C154.72,43.68 151.68,39.04 146.24,39.04 C139.92,39.04 135.12,45.28 135.12,54.4 L135.12,80 L133.6,80 L133.6,38.4 L135.12,38.4 L135.12,46.16 C137.28,40.88 141.52,37.6 146.4,37.6 C151.36,37.6 154.64,40.88 155.76,47.28 C157.76,41.28 162.16,37.6 167.44,37.6 Z M200,80.8 C192.32,80.8 187.76,75.52 187.76,67.84 L187.76,50.56 C187.76,42.88 192.32,37.6 200,37.6 C207.68,37.6 212.24,42.88 212.24,50.56 L212.24,67.84 C212.24,75.52 207.68,80.8 200,80.8 Z M200,79.36 C206.72,79.36 210.72,74.64 210.72,67.84 L210.72,50.56 C210.72,43.76 206.72,39.04 200,39.04 C193.28,39.04 189.28,43.76 189.28,50.56 L189.28,67.84 C189.28,74.64 193.28,79.36 200,79.36 Z M236.64,37.6 C243.04,37.6 246.88,42.8 246.88,52.8 L246.88,80 L245.36,80 L245.36,52.8 C245.36,43.68 242.08,39.04 236.48,39.04 C229.76,39.04 224.72,45.28 224.72,54.4 L224.72,80 L223.2,80 L223.2,38.4 L224.72,38.4 L224.72,46.32 C226.96,40.96 231.44,37.6 236.64,37.6 Z M259.12,30.24 C257.92,30.24 257.12,29.44 257.12,28.24 C257.12,27.04 257.92,26.24 259.12,26.24 C260.32,26.24 261.12,27.04 261.12,28.24 C261.12,29.44 260.32,30.24 259.12,30.24 Z M258.32,80 L258.32,38.4 L259.84,38.4 L259.84,80 L258.32,80 Z M283.2,37.6 C290.32,37.6 294.32,42.08 294.32,49.84 L294.32,80 L292.8,80 L292.8,74.48 C291.04,78.32 287.36,80.8 281.28,80.8 C274.48,80.8 270.08,76.16 270.08,68.32 C270.08,60.72 274.96,56.32 283.76,56.32 L292.8,56.32 L292.8,49.84 C292.8,42.96 289.36,39.04 283.2,39.04 C277.04,39.04 273.04,43.04 272.96,48.08 L271.44,48.08 C271.84,42.16 276.08,37.6 283.2,37.6 Z M281.36,79.36 C289.12,79.36 292.8,75.04 292.8,67.36 L292.8,57.76 L283.76,57.76 C275.84,57.76 271.6,61.68 271.6,68.32 C271.6,75.2 275.44,79.36 281.36,79.36 Z M306.4,80 L306.4,22.24 L307.92,22.24 L307.92,80 L306.4,80 Z M329.76,80.8 C322.4,80.8 317.84,76.88 317.44,69.2 L318.96,69.2 C319.36,76.24 323.2,79.36 329.76,79.36 C335.04,79.36 339.6,76.08 339.6,70.8 C339.6,58.08 317.92,60.96 317.92,47.44 C317.92,41.68 322.64,37.6 328.88,37.6 C335.6,37.6 339.92,41.52 340.24,47.92 L338.72,47.92 C338.4,42.16 334.8,39.04 328.88,39.04 C323.6,39.04 319.44,42.32 319.44,47.44 C319.44,59.68 341.12,56.88 341.12,70.8 C341.12,76.72 335.84,80.8 329.76,80.8 Z" id="Testimonials"></path>
                </g>
                <path d="M24.775,124.325 C21.675,124.325 19.675,122.4 19.65,119.2 L22.225,119.2 C22.25,121 23.225,121.875 24.775,121.875 C26.45,121.875 27.275,120.875 27.275,119.475 C27.275,116 19.95,115.8 19.95,110.6 C19.95,108.075 21.8,106.175 24.75,106.175 C27.75,106.175 29.55,108.1 29.625,111.075 L27.05,111.075 C27,109.4 26.125,108.6 24.775,108.6 C23.35,108.6 22.525,109.4 22.525,110.65 C22.525,114.075 29.875,114.075 29.875,119.5 C29.875,122.1 28.05,124.325 24.775,124.325 Z M39.875,119.875 L42.3,119.875 C42.075,122.675 40.35,124.275 37.5,124.275 C34.75,124.275 33.025,122.475 33.025,119.325 L33.025,115.4 C33.025,112.275 34.75,110.5 37.525,110.5 C40.35,110.5 42.125,112.275 42.125,115.4 L42.125,118.325 L35.45,118.325 L35.45,119.325 C35.45,121.125 36.225,121.95 37.55,121.95 C39.025,121.95 39.65,121.3 39.875,119.875 Z M37.55,112.775 C36.225,112.775 35.45,113.575 35.45,115.375 L35.45,116.5 L39.725,116.5 L39.725,115.375 C39.725,113.575 38.925,112.775 37.55,112.775 Z M52.575,119.875 L55,119.875 C54.775,122.675 53.05,124.275 50.2,124.275 C47.45,124.275 45.725,122.475 45.725,119.325 L45.725,115.4 C45.725,112.275 47.45,110.5 50.225,110.5 C53.05,110.5 54.825,112.275 54.825,115.4 L54.825,118.325 L48.15,118.325 L48.15,119.325 C48.15,121.125 48.925,121.95 50.25,121.95 C51.725,121.95 52.35,121.3 52.575,119.875 Z M50.25,112.775 C48.925,112.775 48.15,113.575 48.15,115.375 L48.15,116.5 L52.425,116.5 L52.425,115.375 C52.425,113.575 51.625,112.775 50.25,112.775 Z M77.3000001,110.825 L79.8000001,110.825 L76.6750001,124 L74.0500001,124 L72.9000001,119.225 C72.5000001,117.425 72.1250001,115.275 72.0000001,114.025 L71.9000001,114.025 C71.8000001,115.275 71.4250001,117.425 71.0000001,119.225 L69.8750001,124 L67.2500001,124 L64.1000001,110.825 L66.6250001,110.825 L67.8000001,116.725 C68.0750001,118.2 68.4250001,120.35 68.5500001,121.25 L68.6500001,121.25 C68.8000001,120.2 69.1500001,118.175 69.4750001,116.625 L70.6750001,111.075 L73.2500001,111.075 L74.4500001,116.625 C74.7500001,118.175 75.1250001,120.2 75.2750001,121.25 L75.3750001,121.25 C75.4750001,120.35 75.8500001,118.2 76.1250001,116.725 L77.3000001,110.825 Z M88.0250001,110.5 C90.3250001,110.5 91.6500001,112.25 91.6500001,115.975 L91.6500001,124 L89.2250001,124 L89.2250001,116.05 C89.2250001,113.7 88.6000001,112.8 87.3750001,112.8 C86.0000001,112.8 85.1250001,113.9 85.1250001,115.85 L85.1250001,124 L82.7000001,124 L82.7000001,105.95 L85.1250001,105.95 L85.1250001,112.1 C85.7750001,111.125 86.7500001,110.5 88.0250001,110.5 Z M99.9500001,110.5 C102.775,110.5 104.225,112.225 104.225,115.25 L104.225,124 L102.25,124 L102.075,122.775 C101.55,123.65 100.6,124.325 99.1500001,124.325 C96.7250001,124.325 95.1000001,122.725 95.1000001,120.25 C95.1000001,117.55 96.9750001,116.175 99.8750001,116.175 L101.8,116.175 L101.8,115.25 C101.8,113.7 101.225,112.825 99.9000001,112.825 C98.8250001,112.825 98.0250001,113.4 97.9000001,114.575 L95.4750001,114.575 C95.6000001,112.05 97.3000001,110.5 99.9500001,110.5 Z M101.8,120.075 L101.8,118.275 L99.8750001,118.275 C98.4000001,118.275 97.5500001,118.95 97.5500001,120.25 C97.5500001,121.45 98.3250001,122.175 99.6500001,122.175 C100.975,122.175 101.8,121.325 101.8,120.075 Z M113.5,121.875 L114.3,121.875 L114.3,124.15 L113.375,124.15 C110.75,124.15 109.2,122.475 109.2,119.75 L109.2,113.025 L107.35,113.025 L107.35,110.825 L109.2,110.825 L109.2,107.7 L111.6,107.7 L111.6,110.825 L114.05,110.825 L114.05,113.025 L111.6,113.025 L111.6,119.775 C111.6,121.2 112.2,121.875 113.5,121.875 Z M128.775,124.3 C125.925,124.3 124.15,122.525 124.15,119.3 L124.15,115.5 C124.15,112.275 125.925,110.5 128.775,110.5 C131.65,110.5 133.425,112.275 133.425,115.5 L133.425,119.3 C133.425,122.525 131.65,124.3 128.775,124.3 Z M128.775,121.95 C130.15,121.95 130.975,121.15 130.975,119.3 L130.975,115.5 C130.975,113.65 130.15,112.85 128.775,112.85 C127.425,112.85 126.6,113.65 126.6,115.5 L126.6,119.3 C126.6,121.15 127.425,121.95 128.775,121.95 Z M143.775,110.825 L146.2,110.825 L146.2,124 L144.475,124 L144.225,122.525 C143.55,123.65 142.45,124.325 140.95,124.325 C138.675,124.325 137.25,122.7 137.25,119.1 L137.25,110.825 L139.675,110.825 L139.675,118.975 C139.675,121.125 140.25,122.025 141.525,122.025 C142.9,122.025 143.775,120.925 143.775,118.975 L143.775,110.825 Z M155.825,110.525 C156.375,110.525 156.825,110.575 157.2,110.725 L157.2,113.125 C156.725,112.925 156.225,112.825 155.575,112.825 C153.925,112.825 152.875,113.9 152.875,115.875 L152.875,124 L150.45,124 L150.45,110.825 L152.175,110.825 L152.45,112.35 C153.125,111.2 154.25,110.525 155.825,110.525 Z M171.175,124.275 C168.425,124.275 166.725,122.525 166.725,119.45 L166.725,115.3 C166.725,112.25 168.425,110.5 171.175,110.5 C174.025,110.5 175.65,112.25 175.75,115.3 L173.3,115.3 C173.25,113.625 172.525,112.825 171.2,112.825 C169.925,112.825 169.175,113.625 169.175,115.3 L169.175,119.45 C169.175,121.125 169.925,121.95 171.2,121.95 C172.55,121.95 173.3,121.125 173.375,119.45 L175.8,119.45 C175.725,122.525 173.975,124.275 171.175,124.275 Z M185.7,110.825 L188.125,110.825 L188.125,124 L186.4,124 L186.15,122.525 C185.475,123.65 184.375,124.325 182.875,124.325 C180.6,124.325 179.175,122.7 179.175,119.1 L179.175,110.825 L181.6,110.825 L181.6,118.975 C181.6,121.125 182.175,122.025 183.45,122.025 C184.825,122.025 185.7,120.925 185.7,118.975 L185.7,110.825 Z M196.15,124.325 C193.15,124.325 191.45,122.375 191.425,119.95 L193.825,119.95 C193.85,121.15 194.575,122.075 196.1,122.075 C197.375,122.075 198.1,121.45 198.1,120.425 C198.1,117.775 191.625,118.675 191.625,114.175 C191.625,111.925 193.3,110.5 195.875,110.5 C198.675,110.5 200.15,112.25 200.25,114.7 L197.875,114.7 C197.85,113.45 197.2,112.7 195.875,112.7 C194.725,112.7 194.025,113.275 194.025,114.2 C194.025,116.7 200.525,115.725 200.525,120.45 C200.525,122.775 198.875,124.325 196.15,124.325 Z M209,121.875 L209.8,121.875 L209.8,124.15 L208.875,124.15 C206.25,124.15 204.7,122.475 204.7,119.75 L204.7,113.025 L202.85,113.025 L202.85,110.825 L204.7,110.825 L204.7,107.7 L207.1,107.7 L207.1,110.825 L209.55,110.825 L209.55,113.025 L207.1,113.025 L207.1,119.775 C207.1,121.2 207.7,121.875 209,121.875 Z M217.575,124.3 C214.725,124.3 212.95,122.525 212.95,119.3 L212.95,115.5 C212.95,112.275 214.725,110.5 217.575,110.5 C220.45,110.5 222.225,112.275 222.225,115.5 L222.225,119.3 C222.225,122.525 220.45,124.3 217.575,124.3 Z M217.575,121.95 C218.95,121.95 219.775,121.15 219.775,119.3 L219.775,115.5 C219.775,113.65 218.95,112.85 217.575,112.85 C216.225,112.85 215.4,113.65 215.4,115.5 L215.4,119.3 C215.4,121.15 216.225,121.95 217.575,121.95 Z M237.7,110.5 C239.925,110.5 241.3,112.225 241.3,115.75 L241.3,124 L238.9,124 L238.9,115.825 C238.9,113.625 238.275,112.8 237.15,112.8 C235.825,112.8 234.95,113.9 234.95,115.85 L234.95,124 L232.55,124 L232.55,115.825 C232.55,113.625 231.875,112.8 230.75,112.8 C229.45,112.8 228.575,113.9 228.575,115.85 L228.575,124 L226.175,124 L226.175,110.825 L227.9,110.825 L228.15,112.3 C228.8,111.175 229.85,110.5 231.3,110.5 C232.7,110.5 233.75,111.15 234.375,112.5 C235.025,111.225 236.15,110.5 237.7,110.5 Z M251.975,119.875 L254.4,119.875 C254.175,122.675 252.45,124.275 249.6,124.275 C246.85,124.275 245.125,122.475 245.125,119.325 L245.125,115.4 C245.125,112.275 246.85,110.5 249.625,110.5 C252.45,110.5 254.225,112.275 254.225,115.4 L254.225,118.325 L247.55,118.325 L247.55,119.325 C247.55,121.125 248.325,121.95 249.65,121.95 C251.125,121.95 251.75,121.3 251.975,119.875 Z M249.65,112.775 C248.325,112.775 247.55,113.575 247.55,115.375 L247.55,116.5 L251.825,116.5 L251.825,115.375 C251.825,113.575 251.025,112.775 249.65,112.775 Z M263.5,110.525 C264.05,110.525 264.5,110.575 264.875,110.725 L264.875,113.125 C264.4,112.925 263.9,112.825 263.25,112.825 C261.6,112.825 260.55,113.9 260.55,115.875 L260.55,124 L258.125,124 L258.125,110.825 L259.85,110.825 L260.125,112.35 C260.8,111.2 261.925,110.525 263.5,110.525 Z M271.875001,124.325 C268.875001,124.325 267.175001,122.375 267.150001,119.95 L269.550001,119.95 C269.575001,121.15 270.300001,122.075 271.825001,122.075 C273.100001,122.075 273.825001,121.45 273.825001,120.425 C273.825001,117.775 267.350001,118.675 267.350001,114.175 C267.350001,111.925 269.025001,110.5 271.600001,110.5 C274.400001,110.5 275.875001,112.25 275.975001,114.7 L273.600001,114.7 C273.575001,113.45 272.925001,112.7 271.600001,112.7 C270.450001,112.7 269.750001,113.275 269.750001,114.2 C269.750001,116.7 276.250001,115.725 276.250001,120.45 C276.250001,122.775 274.600001,124.325 271.875001,124.325 Z M290.375001,124.325 C287.375001,124.325 285.675001,122.375 285.650001,119.95 L288.050001,119.95 C288.075001,121.15 288.800001,122.075 290.325001,122.075 C291.600001,122.075 292.325001,121.45 292.325001,120.425 C292.325001,117.775 285.850001,118.675 285.850001,114.175 C285.850001,111.925 287.525001,110.5 290.100001,110.5 C292.900001,110.5 294.375001,112.25 294.475001,114.7 L292.100001,114.7 C292.075001,113.45 291.425001,112.7 290.100001,112.7 C288.950001,112.7 288.250001,113.275 288.250001,114.2 C288.250001,116.7 294.750001,115.725 294.750001,120.45 C294.750001,122.775 293.100001,124.325 290.375001,124.325 Z M302.425001,110.5 C305.250001,110.5 306.700001,112.225 306.700001,115.25 L306.700001,124 L304.725001,124 L304.550001,122.775 C304.025001,123.65 303.075001,124.325 301.625001,124.325 C299.200001,124.325 297.575001,122.725 297.575001,120.25 C297.575001,117.55 299.450001,116.175 302.350001,116.175 L304.275001,116.175 L304.275001,115.25 C304.275001,113.7 303.700001,112.825 302.375001,112.825 C301.300001,112.825 300.500001,113.4 300.375001,114.575 L297.950001,114.575 C298.075001,112.05 299.775001,110.5 302.425001,110.5 Z M304.275001,120.075 L304.275001,118.275 L302.350001,118.275 C300.875001,118.275 300.025001,118.95 300.025001,120.25 C300.025001,121.45 300.800001,122.175 302.125001,122.175 C303.450001,122.175 304.275001,121.325 304.275001,120.075 Z M317.000001,110.825 L319.500001,110.825 L315.275001,125.025 C314.650001,127.175 313.725001,128.75 311.750001,128.75 L310.450001,128.75 L310.450001,126.4 L311.275001,126.4 C312.300001,126.4 312.625001,125.675 312.950001,124.6 L313.525001,122.625 L309.275001,110.825 L311.825001,110.825 L314.550001,119.175 L317.000001,110.825 Z M321.950001,124.275 C321.050001,124.275 320.425001,123.675 320.425001,122.75 C320.425001,121.85 321.050001,121.25 321.950001,121.25 C322.850001,121.25 323.475001,121.85 323.475001,122.75 C323.475001,123.675 322.850001,124.275 321.950001,124.275 Z" id="See-what-our-custome-Copy" fill="#000000" opacity="0.331125453"></path>
            </g>
        </g>
    </g>
</svg>