<?xml version="1.0" encoding="UTF-8"?>
<svg width="249px" height="107px" viewBox="0 0 249 107" version="1.1" xmlns="http://www.w3.org/2000/svg" xmlns:xlink="http://www.w3.org/1999/xlink">
    <!-- Generator: Sketch 49 (51002) - http://www.bohemiancoding.com/sketch -->
    <title>Work</title>
    <desc>Created with Sketch.</desc>
    <defs></defs>
    <g id="Page-1-Copy" stroke="none" stroke-width="1" fill="none" fill-rule="evenodd">
        <g id="Habilis" transform="translate(-595.000000, -1809.000000)">
            <g id="Work" transform="translate(594.000000, 1787.000000)">
                <g id="Group-4" transform="translate(55.000000, 0.000000)" fill="#414244">
                    <path d="M49.52,24 L51.28,24 L39.28,80 L37.36,80 L28.48,39.2 L26.24,27.84 L24,39.2 L15.12,80 L13.2,80 L1.2,24 L2.96,24 L11.92,67.04 C12.64,70.64 13.44,74.16 14.16,77.76 C14.88,74.16 15.68,70.64 16.4,67.04 L25.36,24.8 L27.12,24.8 L35.84,65.92 L38.32,77.76 C39.12,73.84 40,69.92 40.8,66 L49.52,24 Z M68,80.8 C60.32,80.8 55.76,75.52 55.76,67.84 L55.76,50.56 C55.76,42.88 60.32,37.6 68,37.6 C75.68,37.6 80.24,42.88 80.24,50.56 L80.24,67.84 C80.24,75.52 75.68,80.8 68,80.8 Z M68,79.36 C74.72,79.36 78.72,74.64 78.72,67.84 L78.72,50.56 C78.72,43.76 74.72,39.04 68,39.04 C61.28,39.04 57.28,43.76 57.28,50.56 L57.28,67.84 C57.28,74.64 61.28,79.36 68,79.36 Z M104.4,37.6 C106.4,37.6 108,37.84 108.72,38.08 L108.72,39.68 C107.2,39.28 105.84,39.04 104.08,39.04 C97.68,39.04 92.72,45.28 92.72,54.4 L92.72,79.76 L91.2,79.76 L91.2,38.4 L92.72,38.4 L92.72,46.24 C94.96,40.88 99.28,37.6 104.4,37.6 Z M138.96,80 L122,57.36 L117.76,61.92 L117.76,80 L116.24,80 L116.24,22.24 L117.76,22.24 L117.76,59.76 L137.44,38.4 L139.44,38.4 L123.04,56.16 L140.8,80 L138.96,80 Z" id="Work"></path>
                </g>
                <path d="M6.6,124.325 C3.25,124.325 1.25,122.1 1.25,118.45 L1.25,112.05 C1.25,108.4 3.25,106.175 6.6,106.175 C9.95,106.175 11.95,108.4 11.95,112.05 L11.95,118.45 C11.95,122.1 9.95,124.325 6.6,124.325 Z M6.6,121.85 C8.4,121.85 9.35,120.65 9.35,118.45 L9.35,112.05 C9.35,109.85 8.4,108.65 6.6,108.65 C4.775,108.65 3.85,109.85 3.85,112.05 L3.85,118.45 C3.85,120.65 4.775,121.85 6.6,121.85 Z M22.4,110.825 L24.825,110.825 L24.825,124 L23.1,124 L22.85,122.525 C22.175,123.65 21.075,124.325 19.575,124.325 C17.3,124.325 15.875,122.7 15.875,119.1 L15.875,110.825 L18.3,110.825 L18.3,118.975 C18.3,121.125 18.875,122.025 20.15,122.025 C21.525,122.025 22.4,120.925 22.4,118.975 L22.4,110.825 Z M34.45,110.525 C35,110.525 35.45,110.575 35.825,110.725 L35.825,113.125 C35.35,112.925 34.85,112.825 34.2,112.825 C32.55,112.825 31.5,113.9 31.5,115.875 L31.5,124 L29.075,124 L29.075,110.825 L30.8,110.825 L31.075,112.35 C31.75,111.2 32.875,110.525 34.45,110.525 Z M49.8000001,124.275 C47.0500001,124.275 45.3500001,122.525 45.3500001,119.45 L45.3500001,115.3 C45.3500001,112.25 47.0500001,110.5 49.8000001,110.5 C52.6500001,110.5 54.2750001,112.25 54.3750001,115.3 L51.9250001,115.3 C51.8750001,113.625 51.1500001,112.825 49.8250001,112.825 C48.5500001,112.825 47.8000001,113.625 47.8000001,115.3 L47.8000001,119.45 C47.8000001,121.125 48.5500001,121.95 49.8250001,121.95 C51.1750001,121.95 51.9250001,121.125 52.0000001,119.45 L54.4250001,119.45 C54.3500001,122.525 52.6000001,124.275 49.8000001,124.275 Z M62.2500001,124.3 C59.4000001,124.3 57.6250001,122.525 57.6250001,119.3 L57.6250001,115.5 C57.6250001,112.275 59.4000001,110.5 62.2500001,110.5 C65.1250001,110.5 66.9000001,112.275 66.9000001,115.5 L66.9000001,119.3 C66.9000001,122.525 65.1250001,124.3 62.2500001,124.3 Z M62.2500001,121.95 C63.6250001,121.95 64.4500001,121.15 64.4500001,119.3 L64.4500001,115.5 C64.4500001,113.65 63.6250001,112.85 62.2500001,112.85 C60.9000001,112.85 60.0750001,113.65 60.0750001,115.5 L60.0750001,119.3 C60.0750001,121.15 60.9000001,121.95 62.2500001,121.95 Z M82.3750001,110.5 C84.6000001,110.5 85.9750001,112.225 85.9750001,115.75 L85.9750001,124 L83.5750001,124 L83.5750001,115.825 C83.5750001,113.625 82.9500001,112.8 81.8250001,112.8 C80.5000001,112.8 79.6250001,113.9 79.6250001,115.85 L79.6250001,124 L77.2250001,124 L77.2250001,115.825 C77.2250001,113.625 76.5500001,112.8 75.4250001,112.8 C74.1250001,112.8 73.2500001,113.9 73.2500001,115.85 L73.2500001,124 L70.8500001,124 L70.8500001,110.825 L72.5750001,110.825 L72.8250001,112.3 C73.4750001,111.175 74.5250001,110.5 75.9750001,110.5 C77.3750001,110.5 78.4250001,111.15 79.0500001,112.5 C79.7000001,111.225 80.8250001,110.5 82.3750001,110.5 Z M95.0000002,110.525 C97.5000002,110.525 99.2000002,112.4 99.2000002,115.625 L99.2000002,119.25 C99.2000002,122.45 97.5500002,124.3 95.0000002,124.3 C94.0500002,124.3 93.1250002,123.925 92.4750002,123.25 L92.4750002,128.5 L90.1000002,128.5 L90.1000002,110.8 L91.8500002,110.8 L92.0250002,112.025 C92.6750002,111.175 93.8250002,110.525 95.0000002,110.525 Z M96.7250002,119.25 L96.7250002,115.625 C96.7250002,113.675 95.9500002,112.8 94.6000002,112.8 C93.3500002,112.8 92.4750002,113.725 92.4750002,115.6 L92.4750002,119.25 C92.4750002,120.975 93.2750002,122.025 94.6000002,122.025 C96.0000002,122.025 96.7250002,121.175 96.7250002,119.25 Z M103.075,124 L103.075,105.9 L105.5,105.9 L105.5,124 L103.075,124 Z M116.25,119.875 L118.675,119.875 C118.45,122.675 116.725,124.275 113.875,124.275 C111.125,124.275 109.4,122.475 109.4,119.325 L109.4,115.4 C109.4,112.275 111.125,110.5 113.9,110.5 C116.725,110.5 118.5,112.275 118.5,115.4 L118.5,118.325 L111.825,118.325 L111.825,119.325 C111.825,121.125 112.6,121.95 113.925,121.95 C115.4,121.95 116.025,121.3 116.25,119.875 Z M113.925,112.775 C112.6,112.775 111.825,113.575 111.825,115.375 L111.825,116.5 L116.1,116.5 L116.1,115.375 C116.1,113.575 115.3,112.775 113.925,112.775 Z M127.425,121.875 L128.225,121.875 L128.225,124.15 L127.3,124.15 C124.675,124.15 123.125,122.475 123.125,119.75 L123.125,113.025 L121.275,113.025 L121.275,110.825 L123.125,110.825 L123.125,107.7 L125.525,107.7 L125.525,110.825 L127.975,110.825 L127.975,113.025 L125.525,113.025 L125.525,119.775 C125.525,121.2 126.125,121.875 127.425,121.875 Z M138.225,119.875 L140.65,119.875 C140.425,122.675 138.7,124.275 135.85,124.275 C133.1,124.275 131.375,122.475 131.375,119.325 L131.375,115.4 C131.375,112.275 133.1,110.5 135.875,110.5 C138.7,110.5 140.475,112.275 140.475,115.4 L140.475,118.325 L133.8,118.325 L133.8,119.325 C133.8,121.125 134.575,121.95 135.9,121.95 C137.375,121.95 138,121.3 138.225,119.875 Z M135.9,112.775 C134.575,112.775 133.8,113.575 133.8,115.375 L133.8,116.5 L138.075,116.5 L138.075,115.375 C138.075,113.575 137.275,112.775 135.9,112.775 Z M150.8,105.9 L153.15,105.9 L153.15,124 L151.4,124 L151.225,122.775 C150.575,123.625 149.45,124.3 148.25,124.3 C145.775,124.3 144.075,122.4 144.075,119.175 L144.075,115.55 C144.075,112.375 145.7,110.5 148.25,110.5 C149.2,110.5 150.15,110.9 150.8,111.575 L150.8,105.9 Z M150.8,119.2 L150.8,115.55 C150.8,113.85 149.975,112.8 148.65,112.8 C147.25,112.8 146.525,113.65 146.525,115.55 L146.525,119.175 C146.525,121.125 147.325,122 148.65,122 C149.9,122 150.8,121.1 150.8,119.2 Z M169.025,110.525 C171.525,110.525 173.225,112.4 173.225,115.625 L173.225,119.25 C173.225,122.45 171.575,124.3 169.025,124.3 C168.075,124.3 167.15,123.925 166.5,123.25 L166.5,128.5 L164.125,128.5 L164.125,110.8 L165.875,110.8 L166.05,112.025 C166.7,111.175 167.85,110.525 169.025,110.525 Z M170.75,119.25 L170.75,115.625 C170.75,113.675 169.975,112.8 168.625,112.8 C167.375,112.8 166.5,113.725 166.5,115.6 L166.5,119.25 C166.5,120.975 167.3,122.025 168.625,122.025 C170.025,122.025 170.75,121.175 170.75,119.25 Z M182.525,110.525 C183.075,110.525 183.525,110.575 183.9,110.725 L183.9,113.125 C183.425,112.925 182.925,112.825 182.275,112.825 C180.625,112.825 179.575,113.9 179.575,115.875 L179.575,124 L177.15,124 L177.15,110.825 L178.875,110.825 L179.15,112.35 C179.825,111.2 180.95,110.525 182.525,110.525 Z M191.225,124.3 C188.375,124.3 186.6,122.525 186.6,119.3 L186.6,115.5 C186.6,112.275 188.375,110.5 191.225,110.5 C194.1,110.5 195.875,112.275 195.875,115.5 L195.875,119.3 C195.875,122.525 194.1,124.3 191.225,124.3 Z M191.225,121.95 C192.6,121.95 193.425,121.15 193.425,119.3 L193.425,115.5 C193.425,113.65 192.6,112.85 191.225,112.85 C189.875,112.85 189.05,113.65 189.05,115.5 L189.05,119.3 C189.05,121.15 189.875,121.95 191.225,121.95 Z M201.55,108.65 C200.625,108.65 200.025,108 200.025,107.125 C200.025,106.225 200.625,105.575 201.55,105.575 C202.425,105.575 203.075,106.225 203.075,107.125 C203.075,107.975 202.425,108.65 201.55,108.65 Z M198,128.825 L198,126.5 C199.675,126.475 200.35,125.65 200.35,124 L200.35,110.825 L202.75,110.825 L202.75,123.9 C202.75,126.975 201.175,128.8 198,128.825 Z M213.875,119.875 L216.3,119.875 C216.075,122.675 214.35,124.275 211.5,124.275 C208.75,124.275 207.025,122.475 207.025,119.325 L207.025,115.4 C207.025,112.275 208.75,110.5 211.525,110.5 C214.35,110.5 216.125,112.275 216.125,115.4 L216.125,118.325 L209.45,118.325 L209.45,119.325 C209.45,121.125 210.225,121.95 211.55,121.95 C213.025,121.95 213.65,121.3 213.875,119.875 Z M211.55,112.775 C210.225,112.775 209.45,113.575 209.45,115.375 L209.45,116.5 L213.725,116.5 L213.725,115.375 C213.725,113.575 212.925,112.775 211.55,112.775 Z M224.175,124.275 C221.425,124.275 219.725,122.525 219.725,119.45 L219.725,115.3 C219.725,112.25 221.425,110.5 224.175,110.5 C227.025,110.5 228.65,112.25 228.75,115.3 L226.3,115.3 C226.25,113.625 225.525,112.825 224.2,112.825 C222.925,112.825 222.175,113.625 222.175,115.3 L222.175,119.45 C222.175,121.125 222.925,121.95 224.2,121.95 C225.55,121.95 226.3,121.125 226.375,119.45 L228.8,119.45 C228.725,122.525 226.975,124.275 224.175,124.275 Z M237.325,121.875 L238.125,121.875 L238.125,124.15 L237.2,124.15 C234.575,124.15 233.025,122.475 233.025,119.75 L233.025,113.025 L231.175,113.025 L231.175,110.825 L233.025,110.825 L233.025,107.7 L235.425,107.7 L235.425,110.825 L237.875,110.825 L237.875,113.025 L235.425,113.025 L235.425,119.775 C235.425,121.2 236.025,121.875 237.325,121.875 Z M245.450001,124.325 C242.450001,124.325 240.750001,122.375 240.725001,119.95 L243.125001,119.95 C243.150001,121.15 243.875001,122.075 245.400001,122.075 C246.675001,122.075 247.400001,121.45 247.400001,120.425 C247.400001,117.775 240.925001,118.675 240.925001,114.175 C240.925001,111.925 242.600001,110.5 245.175001,110.5 C247.975001,110.5 249.450001,112.25 249.550001,114.7 L247.175001,114.7 C247.150001,113.45 246.500001,112.7 245.175001,112.7 C244.025001,112.7 243.325001,113.275 243.325001,114.2 C243.325001,116.7 249.825001,115.725 249.825001,120.45 C249.825001,122.775 248.175001,124.325 245.450001,124.325 Z" id="Our-completed-projec" fill="#000000" opacity="0.331125453"></path>
            </g>
        </g>
    </g>
</svg>